<?xml version="1.0" encoding="UTF-8"?>
<svg version="1.1" xmlns="http://www.w3.org/2000/svg" width="2841" height="957">
<path d="M0 0 C2.4295903 2.4295903 2.23446257 3.69388913 2.24884033 7.00843811 C2.2380545 8.04961037 2.2380545 8.04961037 2.22705078 9.11181641 C2.22734283 9.84362625 2.22763489 10.5754361 2.22793579 11.329422 C2.22654001 13.75358854 2.2109674 16.17744951 2.1953125 18.6015625 C2.19158325 20.28022087 2.18873586 21.95888141 2.18673706 23.63754272 C2.17909369 28.05991607 2.15943922 32.48215845 2.1373291 36.90447998 C2.11688579 41.41546863 2.10773859 45.9264784 2.09765625 50.4375 C2.07619394 59.29172427 2.04204955 68.14585125 2 77 C4.31 77 6.62 77 9 77 C9.3242395 75.76697144 9.3242395 75.76697144 9.6550293 74.5090332 C10.47091467 71.43944057 11.30198195 68.37447567 12.14331055 65.31176758 C12.50322125 63.98951151 12.85716789 62.66561614 13.20483398 61.34008789 C13.70778197 59.42687087 14.23454753 57.51996595 14.76171875 55.61328125 C15.07069092 54.46641846 15.37966309 53.31955566 15.69799805 52.13793945 C17.2230438 48.46244478 18.9154184 46.49299408 22 44 C25.81063242 43.93429944 27.97432915 44.19869465 31 46.5625 C33.87344112 53.56651273 29.35007656 63.60714983 27.4375 70.5 C27.10814453 71.70398438 26.77878906 72.90796875 26.43945312 74.1484375 C25.63119406 77.10034018 24.81792254 80.05076314 24 83 C25.65 83.33 27.3 83.66 29 84 C29.22042969 83.195625 29.44085937 82.39125 29.66796875 81.5625 C31.37040323 77.00936146 33.76545043 73.12565158 36.3125 69 C37.4005898 67.21405938 38.48779786 65.42758133 39.57421875 63.640625 C40.13802246 62.71572266 40.70182617 61.79082031 41.28271484 60.83789062 C44.1083811 56.1683506 46.86200831 51.45678635 49.625 46.75 C53.58868646 40.02713747 57.582544 33.32523661 61.6875 26.6875 C62.09758301 26.01750977 62.50766602 25.34751953 62.93017578 24.65722656 C65.76292806 20.11853597 65.76292806 20.11853597 68 19 C71.54231061 18.61496624 73.36257342 18.58064041 76.375 20.5625 C78.60328884 23.90493325 78.31213904 26.02943466 78 30 C76.73754883 32.92407227 76.73754883 32.92407227 74.95703125 35.81640625 C74.3014624 36.89978271 73.64589355 37.98315918 72.97045898 39.09936523 C72.25131875 40.25385527 71.53199495 41.40823099 70.8125 42.5625 C70.08051053 43.76212611 69.35014063 44.96274185 68.62133789 46.16430664 C67.13919822 48.60482603 65.65003516 51.04082528 64.15527344 53.47363281 C61.01849104 58.59021916 57.97906529 63.76394141 54.9375 68.9375 C53.89080799 70.7097435 52.84394131 72.48188386 51.796875 74.25390625 C48.51118761 79.82427708 45.24542822 85.4060619 42 91 C42.99 91.99 43.98 92.98 45 94 C48.71268094 92.45872649 50.98115698 90.19156766 53.75 87.3125 C57.99393991 82.97425032 62.38755588 78.93803975 67 75 C67.33 74.67 67.66 74.34 68 74 C71.85797355 73.63604023 74.15988698 73.43992465 77.4375 75.625 C79 78 79 78 79.6875 80.75 C78.03417996 88.56569473 70.04703329 93.83496462 64.3125 98.87890625 C61.55775782 101.40563768 59.27540256 104.04197667 57 107 C57.99 107.66 58.98 108.32 60 109 C75.81621088 100.30772383 91.60762198 91.57810452 107.3046875 82.671875 C108.110271 82.21562744 108.91585449 81.75937988 109.74584961 81.28930664 C111.19336087 80.46137347 112.63490283 79.62286487 114.06860352 78.77124023 C117.97077081 76.46283678 120.41295805 75.28646014 125 76 C127.375 77 127.375 77 129 79 C129.95836322 83.8716797 129.95836322 83.8716797 129 87 C123.35870701 93.09852925 114.67506438 96.65617264 107.4375 100.5625 C104.85530816 101.96737476 102.2753443 103.37631951 99.6953125 104.78515625 C98.72755638 105.3124382 98.72755638 105.3124382 97.74024963 105.85037231 C90.39544297 109.85958884 83.13125421 114.00936606 75.88256836 118.18969727 C74.99964111 118.69428467 74.11671387 119.19887207 73.20703125 119.71875 C72.05424683 120.38293945 72.05424683 120.38293945 70.87817383 121.06054688 C69 122 69 122 67 122 C67.33 123.98 67.66 125.96 68 128 C68.78125244 127.7827124 69.56250488 127.5654248 70.36743164 127.34155273 C73.9287615 126.35952665 77.49540519 125.39836443 81.0625 124.4375 C82.29162109 124.09525391 83.52074219 123.75300781 84.78710938 123.40039062 C85.98271484 123.08134766 87.17832031 122.76230469 88.41015625 122.43359375 C89.50465088 122.13509521 90.59914551 121.83659668 91.72680664 121.52905273 C95.44224996 120.92851826 98.33110049 121.21080051 102 122 C104 123.625 104 123.625 105 126 C104.9375 129.5625 104.9375 129.5625 104 133 C100.93331471 135.94842455 97.7750984 136.8062254 93.703125 137.82421875 C92.49785156 138.13037109 91.29257813 138.43652344 90.05078125 138.75195312 C88.79652344 139.06068359 87.54226563 139.36941406 86.25 139.6875 C84.98027344 140.00783203 83.71054688 140.32816406 82.40234375 140.65820312 C79.27021375 141.44712309 76.13618041 142.22736841 73 143 C73 144.65 73 146.3 73 148 C74.09941213 147.99953206 74.09941213 147.99953206 75.2210346 147.99905466 C154.98392257 147.96517607 234.74681138 147.9337633 314.50970459 147.91531372 C315.70038058 147.91503761 316.89105658 147.91476149 318.11781367 147.91447701 C343.99179471 147.90849178 369.86577584 147.90295133 395.73975708 147.89786934 C408.42757895 147.89537458 421.11540081 147.89278148 433.80322266 147.89013672 C435.0658417 147.8898752 436.32846074 147.88961368 437.62934096 147.88934424 C478.58541376 147.88081516 519.54148106 147.86578778 560.49755052 147.84740556 C602.5704816 147.82855627 644.64340964 147.81623281 686.71634487 147.81217002 C692.65312834 147.81159367 698.5899118 147.8109424 704.52669525 147.81024551 C705.69518772 147.81011067 706.86368018 147.80997582 708.06758151 147.80983689 C726.90893451 147.80746959 745.75027812 147.79818308 764.59162729 147.78633593 C783.51424283 147.77458437 802.43684901 147.77005828 821.35946807 147.77299725 C832.61420307 147.77452325 843.86890392 147.77041982 855.12363278 147.75840491 C862.63082646 147.75093519 870.13799764 147.75065138 877.64519284 147.75633637 C881.92969917 147.75937146 886.21414069 147.75916314 890.49864021 147.75023364 C894.3910152 147.74218256 898.28327438 147.74321901 902.17564745 147.75172005 C903.58017637 147.75315668 904.98471363 147.75118978 906.38923188 147.74552951 C908.28782256 147.73835907 910.18644995 147.74460973 912.08504128 147.75160301 C913.13884638 147.75129105 914.19265148 147.75097908 915.27839006 147.75065767 C918.05044107 148.0046212 919.68407278 148.48213558 922 150 C923.42041821 152.84083641 923.31452272 154.85477278 923 158 C920.90460555 160.74939924 919.71142857 161.86976976 916.27575938 162.49868466 C914.69317997 162.49774878 914.69317997 162.49774878 913.07862926 162.49679399 C911.85696913 162.50578316 910.635309 162.51477233 909.37662888 162.5240339 C908.01625428 162.51377064 906.65588239 162.50314294 905.29551315 162.49219131 C903.84805461 162.49514891 902.40059877 162.49986223 900.95315099 162.50617731 C896.95274454 162.51849449 892.95274242 162.50571968 888.95236599 162.48906477 C884.60904936 162.47536351 880.265775 162.48480433 875.9224503 162.49137473 C868.30278033 162.49968348 860.68323507 162.49307125 853.06357956 162.4768219 C841.73337583 162.45272654 830.40325107 162.4514745 819.07302639 162.45498985 C800.0157701 162.46025131 780.9585692 162.44685766 761.90132904 162.42292023 C743.02572099 162.39927158 724.150136 162.38386038 705.27451324 162.37950897 C704.10193883 162.37923401 702.92936441 162.37895906 701.72125744 162.37867576 C695.76661529 162.37732248 689.81197313 162.37611693 683.85733095 162.37496826 C641.65422054 162.36656124 599.45114029 162.33959683 557.24804688 162.30175781 C516.24218913 162.2650346 475.23633964 162.23669304 434.23046875 162.21972656 C432.33530095 162.21893741 432.33530095 162.21893741 430.40184694 162.21813231 C417.71408915 162.21285834 405.02633129 162.20775506 392.33857337 162.20277687 C366.49095358 162.19263136 340.64333434 162.18134635 314.79571533 162.16937256 C313.01297363 162.16854882 313.01297363 162.16854882 311.19421694 162.16770844 C231.79613209 162.13089084 152.39806396 162.0675083 73 162 C72.67 163.98 72.34 165.96 72 168 C73.918125 168.3403125 73.918125 168.3403125 75.875 168.6875 C81.12534049 169.7375681 86.27565625 171.08701879 91.4375 172.5 C92.23075684 172.71358154 93.02401367 172.92716309 93.84130859 173.1472168 C94.5936377 173.35644775 95.3459668 173.56567871 96.12109375 173.78125 C96.7958374 173.96751953 97.47058105 174.15378906 98.16577148 174.34570312 C100 175 100 175 103 177 C104.15426305 181.07839612 104.44931249 183.12009638 102.5 186.9375 C99.78589128 189.17663969 98.63459965 189.35971332 95.21142578 189.25561523 C90.43064935 188.70301279 85.81918124 187.32990432 81.1875 186.0625 C80.13884766 185.78470703 79.09019531 185.50691406 78.00976562 185.22070312 C70.33358617 183.16679308 70.33358617 183.16679308 68 182 C67.67 183.98 67.34 185.96 67 188 C67.7233252 188.27674561 68.44665039 188.55349121 69.19189453 188.83862305 C71.87786791 189.94948858 74.37548938 191.19770429 76.9296875 192.58203125 C77.87908203 193.09572266 78.82847656 193.60941406 79.80664062 194.13867188 C80.81919922 194.69103516 81.83175781 195.24339844 82.875 195.8125 C83.92623047 196.38419922 84.97746094 196.95589844 86.06054688 197.54492188 C93.57077937 201.6426337 101.04781113 205.79771569 108.5 210 C109.43569824 210.52698486 110.37139648 211.05396973 111.33544922 211.59692383 C126.63448065 220.2689613 126.63448065 220.2689613 128 223 C128.38503376 226.54231061 128.41935959 228.36257342 126.4375 231.375 C123.10026516 233.59982322 120.96461022 233.29724138 117 233 C114.09179688 231.8293457 114.09179688 231.8293457 111.21875 230.17578125 C110.14020752 229.56516846 109.06166504 228.95455566 107.95043945 228.32543945 C106.81179443 227.66116943 105.67314941 226.99689941 104.5 226.3125 C103.30575497 225.6303112 102.11067446 224.94958309 100.91479492 224.27026367 C98.46906792 222.87807115 96.02820454 221.47790473 93.59130859 220.0703125 C89.16961096 217.51735898 84.72653036 215.00259203 80.28125 212.4909668 C78.35594312 211.40244009 76.43263548 210.31036672 74.51171875 209.21411133 C69.41117608 206.3116731 64.27482958 203.57293783 59 201 C58.34 201.99 57.68 202.98 57 204 C57.57032959 204.56509277 58.14065918 205.13018555 58.72827148 205.71240234 C61.30060675 208.26400355 63.86909337 210.81944458 66.4375 213.375 C67.33533203 214.26445312 68.23316406 215.15390625 69.15820312 216.0703125 C70.01220703 216.92109375 70.86621094 217.771875 71.74609375 218.6484375 C72.53685303 219.43395996 73.3276123 220.21948242 74.14233398 221.02880859 C76.69519143 223.73767586 76.97377996 224.6394745 77.25 228.4375 C77 232 77 232 76 233.9375 C72.60620877 235.74045159 69.6397336 235.99791727 66 235 C62.35024166 232.20568927 59.37467799 228.85254144 56.3125 225.4375 C54.67704131 223.63149543 53.02786362 221.83779108 51.36328125 220.05859375 C50.64438721 219.25736084 49.92549316 218.45612793 49.18481445 217.63061523 C47.08078641 215.68229921 47.08078641 215.68229921 44.22729492 216.24633789 C43.4922876 216.49504639 42.75728027 216.74375488 42 217 C44.27031854 220.89613355 46.54134507 224.79185396 48.8125 228.6875 C49.45509766 229.79029297 50.09769531 230.89308594 50.75976562 232.02929688 C51.38173828 233.09599609 52.00371094 234.16269531 52.64453125 235.26171875 C53.21534424 236.24100342 53.78615723 237.22028809 54.37426758 238.22924805 C55.45996864 240.07961917 56.57210261 241.91472696 57.7097168 243.73364258 C59 246 59 246 59 248 C63.95 248 68.9 248 74 248 C74.33 286.61 74.66 325.22 75 365 C76.98 358.07 78.96 351.14 81 344 C92.51025837 312.92230239 109.1369697 286.86947331 132 263 C133.06347656 261.87464844 133.06347656 261.87464844 134.1484375 260.7265625 C161.58877257 232.39021649 199.59814266 213.66923343 237.75 205.1875 C239.05964722 204.89504395 239.05964722 204.89504395 240.39575195 204.59667969 C254.55430595 201.6395381 268.69592844 200.61263737 283.125 200.6875 C283.88213287 200.68965515 284.63926575 200.6918103 285.41934204 200.69403076 C341.2048057 200.94705923 392.80818894 222.52783857 433 261 C433.49741699 261.47018555 433.99483398 261.94037109 434.50732422 262.42480469 C454.0122689 280.93351224 469.56068517 304.23941407 480 329 C477.08567977 332.16876893 474.21629541 334.19702835 470.44140625 336.25 C469.34449463 336.85191162 468.24758301 337.45382324 467.11743164 338.07397461 C466.53833038 338.38769012 465.95922913 338.70140564 465.36257935 339.02462769 C462.90863629 340.35429581 460.46325029 341.6993539 458.01731873 343.04368591 C456.77534185 343.72619429 455.53295982 344.4079659 454.29017639 345.08900452 C449.01462565 347.98193515 443.77986363 350.94120561 438.5625 353.9375 C437.73596924 354.4113916 436.90943848 354.8852832 436.05786133 355.37353516 C434.31903948 356.37106545 432.5805226 357.36912749 430.84228516 358.36767578 C425.31462894 361.54220846 419.78293826 364.70968568 414.25 367.875 C413.65667877 368.21455719 413.06335754 368.55411438 412.45205688 368.90396118 C404.07882065 373.69420874 395.676725 378.42927739 387.25 383.125 C379.15275292 387.63770761 371.11737922 392.24167295 363.125 396.9375 C351.3030518 403.87877386 339.3277663 410.52745593 327.32861328 417.15625 C322.04154364 420.08480728 316.77097343 423.04260263 311.5 426 C309.4675423 427.13818939 307.43498937 428.27620874 305.40234375 429.4140625 C302.0392138 431.2968246 298.67692481 433.18104903 295.31689453 435.06933594 C292.17655578 436.83396531 289.03385015 438.5943144 285.88964844 440.35205078 C284.67834398 441.03021295 283.46788316 441.70988434 282.25830078 442.39111328 C280.58194849 443.33496541 278.90237711 444.27309335 277.22265625 445.2109375 C275.78031616 446.01990479 275.78031616 446.01990479 274.30883789 446.84521484 C272 448 272 448 270 448 C261.98804256 434.03007107 253.99623624 420.0498121 246.125 406 C245.53702637 404.95142822 244.94905273 403.90285645 244.34326172 402.82250977 C241.26025416 397.30826527 241.26025416 397.30826527 240 395 C239.59378418 394.32195312 239.18756836 393.64390625 238.76904297 392.9453125 C238 391 238 391 238.02954102 388.99682617 C239.50375213 385.96347455 241.70377744 384.85393365 244.52734375 383.05078125 C245.09983856 382.68033691 245.67233337 382.30989258 246.26217651 381.92822266 C248.14711821 380.71196413 250.04211307 379.51240233 251.9375 378.3125 C253.24189897 377.47474822 254.54552143 376.63578623 255.84838867 375.7956543 C258.54181352 374.06042842 261.2388191 372.33098048 263.93847656 370.60546875 C269.68311319 366.9280218 275.38464999 363.18495383 281.087677 359.44345093 C283.83380208 357.64284141 286.58300911 355.84696454 289.33203125 354.05078125 C290.23671143 353.45950439 291.1413916 352.86822754 292.07348633 352.2590332 C292.70923584 351.84355225 293.34498535 351.42807129 294 351 C292.72603227 350.51230187 291.45110577 350.02710778 290.17578125 349.54296875 C289.46591064 349.27250732 288.75604004 349.0020459 288.0246582 348.72338867 C274.64909501 343.94444333 259.05260706 347.89606926 246.625 353.75 C231.16889145 362.10635137 219.75408017 375.11828826 214.5625 392 C211.11936388 409.98082194 216.82882982 428.38379747 226.33984375 443.5625 C237.334135 459.70470644 250.00964655 470.91414232 269.5625 474.6875 C291.77798597 476.70708963 310.33098663 467.42027706 327.11555004 453.59570789 C330.04040498 451.07717142 330.04040498 451.07717142 332.41537189 448.17378521 C337.05490143 442.78350731 340.59322733 439.34577651 348.01737976 438.67720032 C350.70055959 438.64543413 353.34030279 438.67157043 356.01831055 438.7512207 C357.49774441 438.75433023 358.97719519 438.75256873 360.45661926 438.74635315 C364.44083128 438.74321914 368.42134014 438.80750424 372.40469718 438.88466668 C376.57915784 438.95381642 380.75372013 438.95992245 384.92866516 438.97294617 C392.81978817 439.00702483 400.70921841 439.09713515 408.59959871 439.20779055 C417.5885599 439.33109373 426.57760547 439.39130975 435.56720293 439.44644034 C454.04575875 439.56116642 472.5227429 439.75442479 491 440 C490.92968189 439.39752032 490.85936378 438.79504065 490.78691483 438.17430401 C490.6955563 437.3757087 490.60419777 436.5771134 490.5100708 435.75431824 C490.37365614 434.57216122 490.37365614 434.57216122 490.23448563 433.36612225 C489.88535264 429.84312884 489.81931561 426.33876315 489.796875 422.80078125 C489.78986069 422.05168991 489.78284637 421.30259857 489.77561951 420.5308075 C489.75821745 418.12464297 489.75176629 415.71872516 489.75 413.3125 C489.74898788 412.07487915 489.74898788 412.07487915 489.74795532 410.81225586 C489.76500962 397.66482969 490.38167616 384.92047023 493 372 C493.25740967 370.70400879 493.25740967 370.70400879 493.52001953 369.38183594 C503.75778682 319.33662853 532.05301588 272.82020455 573.28515625 242.27490234 C574.94445551 241.04129461 576.58189604 239.78269025 578.21875 238.51953125 C621.07015882 206.04403166 679.60152088 192.83333326 732.625 200.125 C736.10343359 200.66215239 739.55038708 201.30230435 743 202 C743.99112793 202.19867676 744.98225586 202.39735352 746.00341797 202.60205078 C760.90794078 205.68741874 775.00312336 210.03633901 789 216 C789.73089844 216.30631348 790.46179687 216.61262695 791.21484375 216.92822266 C815.50209568 227.23916379 836.01509126 242.92591147 855 261 C855.72574219 261.68449219 856.45148437 262.36898438 857.19921875 263.07421875 C862.62107691 268.32564522 867.35865055 274.05515468 872 280 C872.42152344 280.53447754 872.84304688 281.06895508 873.27734375 281.61962891 C894.62568109 308.88310274 908.32010725 340.92064349 914 375 C864.5 375 815 375 764 375 C762.02 370.05 760.04 365.1 758 360 C750.12717502 344.08320168 739.1471921 331.08141027 722 325 C706.60883929 319.88342302 692.51444671 321.2811394 677.9375 328.125 C653.62144787 340.60677522 644.68264292 362.3991784 636 387 C728.4 387 820.8 387 916 387 C916.67539236 392.40313891 917.1680302 397.4832385 917.203125 402.8828125 C917.21364647 403.97520988 917.21364647 403.97520988 917.22438049 405.0896759 C917.24181469 407.43484748 917.24823565 409.77976593 917.25 412.125 C917.25101212 413.33085251 917.25101212 413.33085251 917.25204468 414.56106567 C917.2347065 427.58495064 916.56847105 440.19809313 914 453 C913.75056641 454.27423828 913.75056641 454.27423828 913.49609375 455.57421875 C909.44195299 475.66473853 902.85007124 495.01794705 893 513 C892.28234024 514.34754345 891.56489643 515.69520193 890.84765625 517.04296875 C883.15037341 531.3031263 873.71692612 543.88197367 863 556 C862.52884766 556.53431641 862.05769531 557.06863281 861.57226562 557.61914062 C856.06080612 563.8373903 850.45757827 569.7471128 844 575 C843.49549316 575.42216797 842.99098633 575.84433594 842.47119141 576.27929688 C806.74437324 606.17295592 760.98217299 625.74495937 714 627 C713.26313965 627.02046387 712.5262793 627.04092773 711.76708984 627.06201172 C684.64033263 627.7097989 657.59708195 624.31579944 632 615 C631.23800293 614.72317383 630.47600586 614.44634766 629.69091797 614.16113281 C576.46373447 594.49460805 532.78551994 554.75802144 508.96044922 503.13085938 C502.48990286 488.77525983 497.8031895 474.27409976 494 459 C493.84031738 459.59611084 493.68063477 460.19222168 493.51611328 460.80639648 C483.75686906 496.77862825 468.90566692 529.06072379 444 557 C443.54625 557.51546387 443.0925 558.03092773 442.625 558.56201172 C432.51235669 570.02851388 421.36158464 580.01682443 409 589 C408.44924805 589.40186523 407.89849609 589.80373047 407.33105469 590.21777344 C361.98917881 622.87550296 304.0428625 634.97395311 249.12548828 626.55957031 C207.64672879 619.56853297 169.09159112 601.40388859 138.55078125 572.375 C136.04642124 569.98044837 136.04642124 569.98044837 133.375 567.91796875 C131.20601331 566.1663693 129.48109742 564.43544286 127.6875 562.3125 C125.89969833 560.21078026 124.11821697 558.12604591 122.23046875 556.11328125 C110.29234026 543.32063409 100.93503685 528.5249278 93 513 C92.60828613 512.24106445 92.21657227 511.48212891 91.81298828 510.70019531 C85.00915254 497.3843172 79.63094203 483.52376812 76 469 C75.67 522.13 75.34 575.26 75 630 C58.4790724 630 58.4790724 630 51.375 628.5 C50.12058105 628.23932739 50.12058105 628.23932739 48.84082031 627.97338867 C19.85458341 621.46853928 -4.02522535 604.35430359 -25 584 C-25.89332031 583.14664063 -26.78664063 582.29328125 -27.70703125 581.4140625 C-33.63343136 575.64242245 -38.89645382 569.50417635 -44 563 C-44.80308594 561.99066406 -45.60617187 560.98132813 -46.43359375 559.94140625 C-62.77171428 539.23214998 -85.40974868 510.16304015 -85.24050903 482.97732544 C-85.24307231 481.46893012 -85.24307231 481.46893012 -85.24568737 479.93006217 C-85.24897978 476.56283989 -85.23798249 473.19581719 -85.22705078 469.82861328 C-85.22648661 467.41396591 -85.22680333 464.99931819 -85.22793579 462.58467102 C-85.22839113 457.3873006 -85.22272082 452.18997525 -85.21146011 446.99261856 C-85.19518975 439.47816467 -85.18999554 431.96373506 -85.18748413 424.44926547 C-85.18310944 412.2568533 -85.16980647 400.06446793 -85.15087891 387.87207031 C-85.13251426 376.02994928 -85.11836062 364.18783553 -85.10986328 352.34570312 C-85.10933783 351.61546555 -85.10881239 350.88522797 -85.10827102 350.13286199 C-85.1056609 346.46938838 -85.10313349 342.80591473 -85.10064721 339.14244103 C-85.07992174 308.76160817 -85.04455344 278.38080781 -85 248 C-79.39 248 -73.78 248 -68 248 C-67.34 246.35 -66.68 244.7 -66 243 C-65.11299705 241.33670249 -64.19458656 239.68987824 -63.25 238.05859375 C-62.7240625 237.14529297 -62.198125 236.23199219 -61.65625 235.29101562 C-61.1096875 234.34935547 -60.563125 233.40769531 -60 232.4375 C-58.91571917 230.5617453 -57.83235014 228.68546317 -56.75 226.80859375 C-56.03070312 225.56807251 -56.03070312 225.56807251 -55.296875 224.30249023 C-54.12919089 222.22936733 -53.04205056 220.138477 -52 218 C-53.75244247 216.3516367 -53.75244247 216.3516367 -56 215 C-59.47445797 215.37512861 -61.09678899 216.75602569 -63.4609375 219.23828125 C-64.41613281 220.22151367 -64.41613281 220.22151367 -65.390625 221.22460938 C-66.04546875 221.91361328 -66.7003125 222.60261719 -67.375 223.3125 C-75.74575249 232.07511042 -75.74575249 232.07511042 -81 235 C-84.21403361 234.93697973 -86.12933872 234.52239677 -88.875 232.875 C-90.72977648 229.78370587 -90.48491678 227.51564662 -90 224 C-88.3861299 222.22697112 -86.74893683 220.6324101 -85 219 C-83.59337954 217.60194604 -82.191432 216.19918229 -80.79296875 214.79296875 C-76.52864583 210.52864583 -72.26432292 206.26432292 -68 202 C-68.66 201.34 -69.32 200.68 -70 200 C-82.10147814 206.49837643 -94.17122303 213.04549406 -106.125 219.8125 C-107.07890625 220.35116699 -108.0328125 220.88983398 -109.015625 221.44482422 C-113.14963702 223.78642203 -117.26814494 226.14518318 -121.33984375 228.59375 C-121.97970215 228.97426514 -122.61956055 229.35478027 -123.27880859 229.74682617 C-124.91239168 230.72281716 -126.53677284 231.7141675 -128.16015625 232.70703125 C-131.37988869 234.1729617 -133.50058336 234.34008415 -137 234 C-139.3125 232.875 -139.3125 232.875 -141 231 C-141.89704452 227.98849341 -142.34478991 225.99285495 -141.30249023 222.99145508 C-139.63004561 220.43435464 -137.96583952 219.53103042 -135.28515625 218.07421875 C-133.80994507 217.26114258 -133.80994507 217.26114258 -132.30493164 216.43164062 C-131.2349292 215.85607422 -130.16492676 215.28050781 -129.0625 214.6875 C-127.95962646 214.08228516 -126.85675293 213.47707031 -125.72045898 212.85351562 C-123.3679102 211.56263412 -121.01368794 210.27551332 -118.65625 208.99365234 C-113.18763544 206.01684459 -107.74615333 202.99114911 -102.30392456 199.96646118 C-100.60840197 199.02547482 -98.91079583 198.08824581 -97.21313477 197.15112305 C-95.12284832 195.99426996 -93.03613525 194.83092896 -90.95361328 193.66015625 C-88.97606584 192.54862355 -86.98987562 191.45233627 -84.99560547 190.37109375 C-83.61912842 189.59958984 -83.61912842 189.59958984 -82.21484375 188.8125 C-81.40007568 188.36519531 -80.58530762 187.91789063 -79.74584961 187.45703125 C-79.16971924 186.97621094 -78.59358887 186.49539063 -78 186 C-78 184.68 -78 183.36 -78 182 C-78.78125244 182.21205078 -79.56250488 182.42410156 -80.36743164 182.64257812 C-83.93008309 183.60410043 -87.49618654 184.55215476 -91.0625 185.5 C-92.29162109 185.83386719 -93.52074219 186.16773438 -94.78710938 186.51171875 C-96.58051758 186.98544922 -96.58051758 186.98544922 -98.41015625 187.46875 C-99.50465088 187.76201172 -100.59914551 188.05527344 -101.72680664 188.35742188 C-106.32936106 189.26097399 -110.41741794 190.05505471 -114.4375 187.375 C-116.45932313 184.30182885 -116.52755517 182.61752119 -116 179 C-114.39331853 176.10831484 -113.34856701 175.13872269 -110.24438477 173.90332031 C-109.15440186 173.63100586 -108.06441895 173.35869141 -106.94140625 173.078125 C-105.75095703 172.77519531 -104.56050781 172.47226562 -103.33398438 172.16015625 C-101.46709961 171.70962891 -101.46709961 171.70962891 -99.5625 171.25 C-97.70141602 170.77626953 -97.70141602 170.77626953 -95.80273438 170.29296875 C-86.62589624 168 -86.62589624 168 -82 168 C-82.33 166.02 -82.66 164.04 -83 162 C-83.93072327 162.00888245 -84.86144653 162.01776489 -85.82037354 162.0269165 C-94.58988061 162.10798944 -103.35931168 162.16795907 -112.12910843 162.20724869 C-116.63782617 162.22812702 -121.14624148 162.25644889 -125.65478516 162.30175781 C-130.00550053 162.34520719 -134.35592493 162.36913525 -138.70684052 162.37950897 C-140.3670688 162.38690202 -142.02728109 162.40133898 -143.68738556 162.42292023 C-146.01231849 162.4519432 -148.33604799 162.45595663 -150.66113281 162.45410156 C-151.3480571 162.46848267 -152.03498138 162.48286377 -152.74272156 162.49768066 C-156.06309613 162.46899901 -157.75330331 162.18609063 -160.4352417 160.1630249 C-162.52947536 157.26808608 -162.44659626 155.49833733 -162 152 C-160 149 -160 149 -157 148 C-154.62355983 147.90985187 -152.24460105 147.88243701 -149.86645508 147.88647461 C-149.14425278 147.88632858 -148.42205048 147.88618256 -147.67796326 147.8860321 C-145.29178866 147.88672855 -142.90569221 147.8945084 -140.51953125 147.90234375 C-138.8647211 147.90420888 -137.20991039 147.90563234 -135.55509949 147.90663147 C-131.20018997 147.91044915 -126.84531382 147.92027305 -122.49041748 147.93133545 C-118.04635062 147.94156567 -113.60227837 147.94613255 -109.15820312 147.95117188 C-100.43878677 147.96189598 -91.71939754 147.97896343 -83 148 C-83 146.02 -83 144.04 -83 142 C-83.89307861 141.7733667 -84.78615723 141.5467334 -85.70629883 141.31323242 C-89.0239688 140.46605288 -92.33895943 139.60962 -95.65258789 138.74682617 C-97.08619712 138.37558182 -98.52076876 138.0080332 -99.95629883 137.64428711 C-102.02169781 137.12025199 -104.08325066 136.58294561 -106.14453125 136.04296875 C-107.38565674 135.72352295 -108.62678223 135.40407715 -109.90551758 135.07495117 C-112.82749458 134.05992437 -114.19604302 133.45709304 -116 131 C-116.71140218 127.54063253 -116.58495415 124.16990831 -115 121 C-107.90466383 117.45233192 -98.53244937 121.49845672 -91.5 123.5 C-90.29601563 123.83386719 -89.09203125 124.16773438 -87.8515625 124.51171875 C-84.89836809 125.33205053 -81.94812911 126.16168152 -79 127 C-78.67 126.01 -78.34 125.02 -78 124 C-78.93960571 123.4738208 -78.93960571 123.4738208 -79.89819336 122.93701172 C-80.78643799 122.43959473 -81.67468262 121.94217773 -82.58984375 121.4296875 C-83.58991455 120.86967041 -84.58998535 120.30965332 -85.62036133 119.73266602 C-87.85595316 118.48068852 -90.09146583 117.22856967 -92.3269043 115.97631836 C-98.15096856 112.71393825 -103.9762979 109.45386874 -109.8046875 106.19921875 C-110.896604 105.58900879 -111.98852051 104.97879883 -113.11352539 104.35009766 C-115.18252635 103.19393304 -117.25199387 102.03860279 -119.32202148 100.88427734 C-122.21943688 99.26444143 -125.11134581 97.63540633 -128 96 C-129.08587402 95.38624512 -130.17174805 94.77249023 -131.29052734 94.14013672 C-132.36383301 93.52541504 -133.43713867 92.91069336 -134.54296875 92.27734375 C-136.00319458 91.44384399 -136.00319458 91.44384399 -137.49291992 90.59350586 C-139.70301299 89.18876563 -141.38520162 88.04872369 -143 86 C-143.5 82.5625 -143.5 82.5625 -143 79 C-140.9375 76.5 -140.9375 76.5 -138 75 C-131.25021104 75.12130558 -126.44672262 78.24759757 -120.75 81.625 C-118.70778302 82.80858975 -116.66477994 83.99082393 -114.62109375 85.171875 C-113.01210205 86.10676758 -113.01210205 86.10676758 -111.37060547 87.06054688 C-105.5584539 90.40487051 -99.6834311 93.63534753 -93.8125 96.875 C-85.47562825 101.477061 -77.20526798 106.16730259 -69 111 C-68.5359375 109.824375 -68.5359375 109.824375 -68.0625 108.625 C-67 106 -67 106 -66 104 C-66.64001953 103.46826172 -66.64001953 103.46826172 -67.29296875 102.92578125 C-72.04544183 98.87882995 -76.5187777 94.59162903 -80.9375 90.1875 C-81.51717529 89.61233643 -82.09685059 89.03717285 -82.6940918 88.44458008 C-87.91214949 83.20794452 -87.91214949 83.20794452 -88.25 78.5625 C-88 75 -88 75 -86.8125 73.125 C-84.42957957 71.64594594 -82.81582552 71.13408693 -80 71 C-75.64423194 73.14460567 -72.51011313 76.28992905 -69.1875 79.75 C-64.6405437 84.3983126 -59.99476457 88.82790254 -55 93 C-53.68 92.34 -52.36 91.68 -51 91 C-54.3080223 84.03369421 -57.88379792 77.36828782 -61.89697266 70.78295898 C-66.28583125 63.57115646 -70.54671467 56.28494795 -74.8125 49 C-75.5615894 47.72207755 -76.31069394 46.44416398 -77.05981445 45.16625977 C-79.04355422 41.77963061 -81.02692266 38.39285923 -83 35 C-83.3662851 34.39639648 -83.73257019 33.79279297 -84.10995483 33.17089844 C-86.69489954 28.83953619 -87.68403867 26.08143013 -87 21 C-85.46609879 18.57805073 -84.30591626 18.11270599 -81.625 17.125 C-78.11292485 16.95775833 -76.82814604 17.93691474 -74 20 C-72.140625 22.5546875 -72.140625 22.5546875 -70.25 25.875 C-69.70351807 26.8189563 -69.70351807 26.8189563 -69.14599609 27.78198242 C-68.27927043 29.27925701 -67.41757829 30.77945106 -66.55957031 32.28173828 C-64.73168869 35.46765468 -62.87977815 38.63921533 -61.0234375 41.80859375 C-60.49094391 42.71799461 -60.49094391 42.71799461 -59.94769287 43.64576721 C-58.09716549 46.80444827 -56.24401374 49.96157624 -54.38867188 53.11743164 C-54.02255798 53.74025528 -53.65644409 54.36307892 -53.27923584 55.004776 C-52.54954016 56.24591686 -51.8196026 57.48691554 -51.0894165 58.72776794 C-48.91323219 62.4300885 -46.76562492 66.14745215 -44.6328125 69.875 C-43.67257123 71.52123964 -42.71169214 73.1671075 -41.75 74.8125 C-41.33314941 75.55862549 -40.91629883 76.30475098 -40.48681641 77.07348633 C-39.22207129 79.30877831 -39.22207129 79.30877831 -37 82 C-34.40378696 82.243562 -34.40378696 82.243562 -32 82 C-32.24758057 81.15816162 -32.49516113 80.31632324 -32.75024414 79.44897461 C-33.66898125 76.30047401 -34.57501909 73.14886802 -35.47290039 69.99438477 C-35.86278569 68.63422591 -36.25756615 67.27545974 -36.6574707 65.91821289 C-37.234053 63.958121 -37.79238426 61.99356428 -38.34765625 60.02734375 C-38.68804932 58.84906006 -39.02844238 57.67077637 -39.37915039 56.45678711 C-40.06778172 52.6226027 -39.87913142 49.78481885 -39 46 C-36.17708663 43.41905063 -34.69477972 42.98610441 -30.875 43.0625 C-27.43276689 44.18496732 -26.86397501 44.95905881 -25 48 C-24.23503532 50.217581 -23.56331517 52.46826462 -22.95703125 54.734375 C-22.78370773 55.37240051 -22.61038422 56.01042603 -22.43180847 56.66778564 C-21.8836762 58.69304746 -21.34793858 60.72134955 -20.8125 62.75 C-20.44157053 64.1291258 -20.06983425 65.50803486 -19.69726562 66.88671875 C-18.78882397 70.25535411 -17.89146342 73.62682663 -17 77 C-15.35 77 -13.7 77 -12 77 C-12.00999275 75.60058418 -12.00999275 75.60058418 -12.02018738 74.17289734 C-12.08095604 65.3883313 -12.12595215 56.6038078 -12.15543652 47.8190794 C-12.17110424 43.30255574 -12.19236257 38.78620152 -12.22631836 34.26977539 C-12.25887255 29.91259403 -12.27684468 25.55557582 -12.28463173 21.19828224 C-12.29018235 19.53445682 -12.30102118 17.8706405 -12.31719017 16.20688438 C-12.33891251 13.87950596 -12.34196917 11.55280499 -12.34057617 9.2253418 C-12.351362 8.53482224 -12.36214783 7.84430267 -12.3732605 7.13285828 C-12.35498961 4.3187405 -12.31633294 2.44803247 -10.66621399 0.11091614 C-6.60864586 -2.59438939 -4.29571154 -1.73656424 0 0 Z M-39 226 C-41.00712206 229.28737411 -43.00447034 232.58057828 -45 235.875 C-45.85851563 237.28072266 -45.85851563 237.28072266 -46.734375 238.71484375 C-47.54648438 240.05869141 -47.54648438 240.05869141 -48.375 241.4296875 C-48.87773438 242.25710449 -49.38046875 243.08452148 -49.8984375 243.93701172 C-51.15700721 245.90426282 -51.15700721 245.90426282 -51 248 C-46.71 248 -42.42 248 -38 248 C-37.1635404 245.04251786 -36.33070305 242.08409896 -35.5 239.125 C-35.26152344 238.28324219 -35.02304688 237.44148437 -34.77734375 236.57421875 C-34.55175781 235.76855469 -34.32617188 234.96289062 -34.09375 234.1328125 C-33.88427734 233.38918457 -33.67480469 232.64555664 -33.45898438 231.87939453 C-32.92091777 229.99862173 -32.92091777 229.99862173 -33 228 C-34.98 227.34 -36.96 226.68 -39 226 Z M24 228 C24.64412614 230.77124036 25.29022748 233.54199445 25.9375 236.3125 C26.11990234 237.09818359 26.30230469 237.88386719 26.49023438 238.69335938 C26.66748047 239.45068359 26.84472656 240.20800781 27.02734375 240.98828125 C27.18968506 241.68477783 27.35202637 242.38127441 27.51928711 243.09887695 C27.93765565 244.7534406 28.46031369 246.38094108 29 248 C33.29 248 37.58 248 42 248 C40.03199925 243.07999813 37.71329654 238.75084815 35.0625 234.1875 C34.61970703 233.39923828 34.17691406 232.61097656 33.72070312 231.79882812 C33.28822266 231.05439453 32.85574219 230.30996094 32.41015625 229.54296875 C32.01965088 228.86258545 31.62914551 228.18220215 31.22680664 227.48120117 C30.82196045 226.99240479 30.41711426 226.5036084 30 226 C26.81509993 225.7226499 26.81509993 225.7226499 24 228 Z M-19 232 C-19.67184618 234.10251861 -20.33730968 236.20707763 -21 238.3125 C-21.37125 239.48425781 -21.7425 240.65601563 -22.125 241.86328125 C-23.13434772 244.93886676 -23.13434772 244.93886676 -23 248 C-19.37 248 -15.74 248 -12 248 C-12 243.05 -12 238.1 -12 233 C-14.31 232.67 -16.62 232.34 -19 232 Z M2 233 C2 237.95 2 242.9 2 248 C5.96 248 9.92 248 14 248 C12.68 242.72 11.36 237.44 10 232 C5.26352314 231.73647686 5.26352314 231.73647686 2 233 Z M496 441 C495.34 444.63 494.68 448.26 494 452 C567.26 452.495 567.26 452.495 642 453 C643.98 458.28 645.96 463.56 648 469 C657.39682336 485.9450913 668.94372632 498.13535421 687.59765625 504.34375 C702.62188961 508.44793082 717.51354791 505.94983393 731.125 498.71875 C749.40144778 487.79261274 761.15021191 469.80766747 768 450 C768.38173517 448.26430801 768.73948482 446.52321607 769.07666016 444.77832031 C769.25121735 443.88220032 769.42577454 442.98608032 769.60562134 442.06280518 C769.7357663 441.38207947 769.86591125 440.70135376 770 440 C746.23485596 439.97618867 722.469714 439.95879255 698.70456028 439.94818783 C687.65939995 439.94312371 676.61424726 439.93625334 665.5690918 439.92456055 C652.75569718 439.9112615 639.94230805 439.90312772 627.12890625 439.90234375 C626.07700875 439.90227939 625.02511125 439.90221503 623.94133806 439.90214872 C581.2889271 439.90368781 538.64681615 440.33054398 496 441 Z " fill="#FFFFFF" transform="translate(1918,126)"/>
<path d="M0 0 C49.17 0 98.34 0 149 0 C149 14.19 149 28.38 149 43 C117.65 43 86.3 43 54 43 C54 53.23 54 63.46 54 74 C81.72 74 109.44 74 138 74 C138 87.2 138 100.4 138 114 C110.28 114 82.56 114 54 114 C54 125.22 54 136.44 54 148 C86.67 148 119.34 148 153 148 C153 161.86 153 175.72 153 190 C102.51 190 52.02 190 0 190 C0 127.3 0 64.6 0 0 Z " fill="#FFFFFF" transform="translate(0,522)"/>
<path d="M0 0 C17.16 0 34.32 0 52 0 C52 66.33 52 132.66 52 201 C35.5 201 19 201 2 201 C1.67 197.37 1.34 193.74 1 190 C-0.8253125 191.5778125 -0.8253125 191.5778125 -2.6875 193.1875 C-15.62093621 203.20179074 -33.06951252 205.56076223 -48.98730469 203.77734375 C-68.37174571 201.13696905 -84.12295444 192.82264279 -97 178 C-110.98004891 159.56216191 -115.08980363 136.59277405 -112.25 114 C-108.92253469 93.27792291 -99.43710891 75.94529073 -82.35546875 63.51953125 C-64.79423856 52.19064478 -43.31719194 48.50245534 -22.75390625 52.73046875 C-14.67714771 55.06121768 -7.69156229 58.98132828 -1 64 C-0.67 42.88 -0.34 21.76 0 0 Z M-50 101 C-57.98753327 109.4225841 -59.98651507 118.59175202 -60 130 C-59.30583142 139.46593523 -56.30293198 148.23762014 -49.3125 154.875 C-41.64006405 160.95260376 -33.6974047 163.11234936 -24 162 C-15.8755553 160.72717033 -10.41894206 155.97548205 -5 150 C0.41489551 142.46877067 1.9394299 132.08604856 1 123 C-0.73345951 112.77529742 -3.93283801 104.77487256 -12.1953125 98.25 C-24.24342219 89.90498896 -39.21230806 91.81725657 -50 101 Z " fill="#FFFFFF" transform="translate(606,232)"/>
<path d="M0 0 C1.08990234 -0.01160156 2.17980469 -0.02320313 3.30273438 -0.03515625 C20.19109478 0.02505181 34.46150372 5.63323924 46.4296875 17.51953125 C61.59849098 33.97115638 61.36905424 56.20146066 61.2578125 77.20703125 C61.25407507 79.295953 61.25123155 81.38487652 61.24923706 83.47380066 C61.24165805 88.93007379 61.22205978 94.38623778 61.1998291 99.84246826 C61.1756173 106.4114176 61.16656236 112.98040374 61.15492249 119.54938507 C61.1356313 129.49133225 61.09726885 139.43304071 61.0625 149.375 C43.9025 149.375 26.7425 149.375 9.0625 149.375 C9.01351563 143.88359375 8.96453125 138.3921875 8.9140625 132.734375 C8.87863475 129.23435771 8.84265117 125.73436347 8.8046875 122.234375 C8.74461667 116.69144166 8.6864914 111.14854021 8.640625 105.60546875 C8.60347482 101.13144164 8.55703863 96.65759462 8.50443649 92.18372345 C8.48604914 90.48552899 8.47088488 88.78729616 8.45915604 87.08904266 C8.9719454 68.24773272 8.9719454 68.24773272 2.0625 51.375 C-3.89744892 46.46969225 -9.53507548 44.98927102 -17.1484375 45.1015625 C-24.66194289 45.83818068 -31.426715 48.58402084 -36.50390625 54.2578125 C-42.3127941 62.836606 -43.02223551 73.01579111 -43.14282227 83.07617188 C-43.15272186 83.79910431 -43.16262146 84.52203674 -43.17282104 85.26687622 C-43.20408347 87.62580231 -43.22905192 89.98474846 -43.25390625 92.34375 C-43.27450635 93.99141932 -43.29550356 95.63908372 -43.31687927 97.28674316 C-43.37178468 101.60042305 -43.42133153 105.9141481 -43.46972656 110.22790527 C-43.52906002 115.4159941 -43.59511261 120.60400128 -43.66002655 125.79202271 C-43.75763869 133.65296482 -43.84676601 141.51396194 -43.9375 149.375 C-61.0975 149.375 -78.2575 149.375 -95.9375 149.375 C-95.9375 100.865 -95.9375 52.355 -95.9375 2.375 C-79.4375 2.375 -62.9375 2.375 -45.9375 2.375 C-45.4425 8.81 -45.4425 8.81 -44.9375 15.375 C-43.514375 14.323125 -42.09125 13.27125 -40.625 12.1875 C-28.09187819 3.4496193 -15.18609129 -0.16107816 0 0 Z " fill="#FFFFFF" transform="translate(1115.9375,562.625)"/>
<path d="M0 0 C1.03769531 -0.01160156 2.07539063 -0.02320313 3.14453125 -0.03515625 C17.66492382 0.01909179 33.29657964 4.54843891 44.0546875 14.79296875 C59.59832886 31.80695456 61.11294366 51.6155578 60.890625 73.59375 C60.8831467 75.79048136 60.8774613 77.98721949 60.87347412 80.18395996 C60.85834283 85.91159108 60.81917142 91.63880392 60.7746582 97.36627197 C60.72616007 104.26729186 60.70811186 111.16845312 60.68484497 118.06959534 C60.6463109 128.50501941 60.56956981 138.93952922 60.5 149.375 C43.34 149.375 26.18 149.375 8.5 149.375 C8.46261719 143.42726563 8.42523438 137.47953125 8.38671875 131.3515625 C8.35641964 127.56898221 8.32525907 123.78644787 8.29101562 120.00390625 C8.23682184 114.0086507 8.18570687 108.01348603 8.15356445 102.01806641 C8.1274312 97.18089826 8.08695867 92.34403771 8.03681374 87.507061 C8.02021254 85.66766582 8.00865646 83.8282175 8.00238609 81.98875809 C8.32727808 64.58731778 8.32727808 64.58731778 0.21875 49.78125 C-5.10419977 45.42610928 -11.05914769 44.87125801 -17.76171875 45.09375 C-25.37199836 45.87540497 -31.44095535 48.53865422 -36.5 54.375 C-41.34429104 61.68685179 -42.79254962 69.89229625 -42.81884766 78.53515625 C-42.83391609 79.69270668 -42.83391609 79.69270668 -42.84928894 80.87364197 C-42.87989335 83.39492119 -42.89709202 85.91609539 -42.9140625 88.4375 C-42.93279251 90.19727467 -42.95236726 91.95704054 -42.9727478 93.71679688 C-43.02388152 98.32638333 -43.06360716 102.93599883 -43.10089111 107.54571533 C-43.14812166 113.08842942 -43.20963849 118.63100144 -43.26873779 124.17359924 C-43.35672113 132.57400822 -43.42664911 140.97439314 -43.5 149.375 C-60.66 149.375 -77.82 149.375 -95.5 149.375 C-95.5 100.865 -95.5 52.355 -95.5 2.375 C-79.33 2.375 -63.16 2.375 -46.5 2.375 C-46.005 9.305 -46.005 9.305 -45.5 16.375 C-44.076875 15.158125 -42.65375 13.94125 -41.1875 12.6875 C-29.12036425 3.08131317 -15.20667072 -0.17001247 0 0 Z " fill="#FFFFFF" transform="translate(407.5,283.625)"/>
<path d="M0 0 C17.16 0 34.32 0 52 0 C52.03738281 5.87554687 52.07476563 11.75109375 52.11328125 17.8046875 C52.1435809 21.5416952 52.17474182 25.27865642 52.20898438 29.015625 C52.26317499 34.93845186 52.31429004 40.8611868 52.34643555 46.78417969 C52.37257171 51.5629951 52.41304621 56.3414993 52.46318626 61.120121 C52.47978552 62.93718703 52.49134279 64.75430681 52.49761391 66.57143784 C52.31992739 83.90200329 52.31992739 83.90200329 60 99 C66.74448296 103.79984943 72.91844809 104.73083497 81 104 C88.62525411 102.2674893 93.81566041 98.60869234 98 92 C101.33233385 84.73280699 102.14000254 77.1771479 102.20532227 69.25048828 C102.21522186 68.49858719 102.22512146 67.7466861 102.23532104 66.97200012 C102.26672395 64.50480214 102.2916089 62.03758496 102.31640625 59.5703125 C102.33699413 57.85252401 102.35799107 56.13474038 102.37937927 54.41696167 C102.4344106 49.90926055 102.48390292 45.40151515 102.53222656 40.89373779 C102.59144315 35.47792753 102.65756631 30.06219769 102.72252655 24.64645386 C102.82029757 16.43101861 102.9093166 8.21553031 103 0 C120.16 0 137.32 0 155 0 C155 48.51 155 97.02 155 147 C138.5 147 122 147 105 147 C104.67 142.71 104.34 138.42 104 134 C102.948125 135.03125 101.89625 136.0625 100.8125 137.125 C89.24853561 147.16471601 73.66069544 150.66015202 58.6484375 150.2890625 C41.01077718 148.89164616 26.16709081 143.84762769 13.6875 130.75 C3.37892673 118.45575893 -0.17722239 103.1019436 -0.11352539 87.41455078 C-0.11367142 86.46757828 -0.11381744 85.52060577 -0.1139679 84.54493713 C-0.11327364 81.42837194 -0.10550406 78.3118672 -0.09765625 75.1953125 C-0.09579034 73.02912427 -0.09436725 70.86293563 -0.09336853 68.69674683 C-0.08955698 63.00531848 -0.07973832 57.31391579 -0.06866455 51.62249756 C-0.05661902 44.78838634 -0.05204171 37.95426651 -0.04621124 31.12014771 C-0.03652584 20.74674731 -0.01735973 10.37340318 0 0 Z " fill="#FFFFFF" transform="translate(690,286)"/>
<path d="M0 0 C1.25039063 -0.01160156 2.50078125 -0.02320313 3.7890625 -0.03515625 C26.1472593 0.03427914 47.19241995 7.78537506 63.2421875 23.4921875 C78.50016715 39.44174696 83.54713145 57.56321229 83.41748047 79.07104492 C82.97004889 97.86457804 76.22378619 115.45452242 62.765625 128.765625 C61.85296875 129.62671875 60.9403125 130.4878125 60 131.375 C59.23171875 132.11234375 58.4634375 132.8496875 57.671875 133.609375 C39.78122674 149.30933164 14.9944893 153.34171851 -8 152.375 C-30.30896035 150.86126632 -51.57115126 141.31211149 -66.54296875 124.5234375 C-79.98421789 107.45732888 -85.06213318 86.77381437 -82.78173828 65.32177734 C-79.90455452 44.95900232 -69.58923758 27.6124228 -53.34863281 15.10302734 C-37.47383615 3.81099107 -19.1882023 -0.17803487 0 0 Z M-22.6875 52.1875 C-30.4202272 61.37118043 -30.64186466 71.83332242 -30 83.375 C-28.71430582 91.42693218 -25.12353586 98.86736567 -18.85546875 104.19921875 C-11.09229431 109.66121371 -3.41270209 111.3992472 6 110.375 C14.15338572 108.36671768 21.10526542 104.04834016 25.5703125 96.83984375 C31.0026651 86.30107971 31.55715121 74.57349492 29.3515625 62.9609375 C26.64199304 54.73959426 21.86537379 48.69281091 14.3125 44.4375 C0.84286936 38.40784744 -12.7770182 41.49243839 -22.6875 52.1875 Z " fill="#FFFFFF" transform="translate(914,562.625)"/>
<path d="M0 0 C0.75134216 0.0012085 1.50268433 0.00241699 2.27679443 0.00366211 C22.1775532 0.09053492 42.77652881 3.00391804 57.7109375 17.609375 C58.26007813 18.19203125 58.80921875 18.7746875 59.375 19.375 C60.29152344 20.27992188 60.29152344 20.27992188 61.2265625 21.203125 C72.20035064 32.69057982 75.55314126 49.27553226 75.48852539 64.68505859 C75.48867142 65.60277039 75.48881744 66.52048218 75.4889679 67.46600342 C75.48827384 70.48517255 75.48050523 73.50427921 75.47265625 76.5234375 C75.47079027 78.62236497 75.46936722 80.72129288 75.46836853 82.82022095 C75.46455754 88.33409842 75.45473938 93.84794938 75.44366455 99.36181641 C75.43161748 105.98317416 75.42704144 112.60454079 75.42121124 119.22590637 C75.41152686 129.27562266 75.39236036 139.32528084 75.375 149.375 C59.205 149.375 43.035 149.375 26.375 149.375 C26.045 144.755 25.715 140.135 25.375 135.375 C24.59125 136.40625 23.8075 137.4375 23 138.5 C15.68103044 146.98725578 4.74100537 151.20976503 -6.26171875 152.24609375 C-25.23690274 153.28110379 -42.80068631 151.33936495 -58.125 139.0625 C-65.58256638 131.92431548 -70.500859 121.83982292 -71.05859375 111.5078125 C-71.08244745 109.8387116 -71.08327169 108.1691421 -71.0625 106.5 C-71.05275146 105.62230957 -71.04300293 104.74461914 -71.03295898 103.84033203 C-70.73104307 92.78509223 -67.82046519 85.57633144 -60.02734375 77.59375 C-42.81867728 61.70021739 -19.28764272 62.05649518 2.75 62.25 C4.75780801 62.26005526 6.76562092 62.26917658 8.7734375 62.27734375 C13.64074844 62.29914312 18.50781853 62.33353103 23.375 62.375 C22.76177002 60.6005833 22.14041425 58.82897338 21.515625 57.05859375 C21.17047852 56.07173584 20.82533203 55.08487793 20.46972656 54.06811523 C18.09618812 48.22902011 13.75600884 45.78879437 8.33984375 43.171875 C-3.98452297 38.17352349 -20.47225711 40.96503699 -32.625 45.375 C-36.2339313 47.06874234 -39.64599081 49.01010733 -43.05078125 51.08203125 C-43.90027344 51.50871094 -44.74976563 51.93539062 -45.625 52.375 C-49.26403681 51.16198773 -49.73377548 49.7782174 -51.42999268 46.48539734 C-51.76762634 45.8031459 -52.10526001 45.12089447 -52.453125 44.41796875 C-52.80638855 43.71859695 -53.1596521 43.01922516 -53.52362061 42.29866028 C-54.26813883 40.81741145 -55.00753325 39.33357785 -55.7421875 37.84741211 C-56.86929064 35.57401594 -58.01930249 33.3133034 -59.171875 31.05273438 C-59.89204354 29.61268771 -60.6108399 28.17195382 -61.328125 26.73046875 C-61.67385559 26.05429001 -62.01958618 25.37811127 -62.37579346 24.68144226 C-63.65498545 22.05848507 -64.65007323 19.99196904 -64.5300293 17.03808594 C-62.83020304 13.9144775 -59.30607198 12.83504287 -56.1875 11.4375 C-55.05308472 10.91808838 -55.05308472 10.91808838 -53.89575195 10.38818359 C-36.67240242 2.77708316 -18.7253879 -0.05568275 0 0 Z M-18.625 96.125 C-20.49180368 100.32530829 -21.21319398 104.08849945 -20.0703125 108.53125 C-18.15239952 113.07992858 -15.73476439 115.83465005 -11.16015625 117.75 C-3.38178808 119.66762543 5.22224306 119.53408945 12.40625 115.78125 C17.13919394 112.40057576 21.17733718 107.78893974 23.375 102.375 C23.61610759 99.32485072 23.61610759 99.32485072 23.5 96.125 C23.48195313 95.04734375 23.46390625 93.9696875 23.4453125 92.859375 C23.42210937 92.03953125 23.39890625 91.2196875 23.375 90.375 C19.12498034 90.27518922 14.87560405 90.20309488 10.62475586 90.15527344 C9.18257748 90.13531249 7.7404784 90.10813337 6.29858398 90.07324219 C-2.88093168 89.85687925 -11.32993193 89.74181544 -18.625 96.125 Z " fill="#FFFFFF" transform="translate(1411.625,283.625)"/>
<path d="M0 0 C1.32956697 1.12598488 2.64367214 2.27062394 3.9375 3.4375 C4.81728516 4.18 4.81728516 4.18 5.71484375 4.9375 C18.68919109 16.7056155 25.57458813 34.28428058 26.9375 51.4375 C27.26368465 58.88060361 27.16625217 66.06498697 25.9375 73.4375 C-9.0425 73.4375 -44.0225 73.4375 -80.0625 73.4375 C-74.141446 84.29276566 -70.11239848 89.61102475 -58.94921875 93.6796875 C-44.77500379 97.40065868 -30.92361449 95.26526286 -18.3671875 87.9375 C-16.19016155 86.5205882 -14.11588604 85.02721823 -12.0625 83.4375 C-4.90539341 86.57964435 0.09419341 93.51567531 5.05859375 99.35546875 C7.94808037 102.55733231 11.13117687 105.45013872 14.3125 108.359375 C15.9375 110.4375 15.9375 110.4375 15.93359375 112.4609375 C10.58550972 123.07321405 -4.17494055 128.86183058 -14.671875 132.40625 C-19.1104125 133.75621993 -23.47254251 134.77630009 -28.0625 135.4375 C-28.80113281 135.54835938 -29.53976562 135.65921875 -30.30078125 135.7734375 C-54.85152122 138.82680684 -83.58112383 135.64741254 -103.76318359 120.12988281 C-107.41321717 117.103446 -110.74933962 113.82595948 -114.0625 110.4375 C-114.72765625 109.80457031 -115.3928125 109.17164063 -116.078125 108.51953125 C-128.88692598 95.45109241 -133.32093455 75.86767114 -133.3112793 58.2043457 C-133.01430477 38.26432196 -125.24289588 20.34235633 -111.62109375 5.84765625 C-82.20133811 -21.86530441 -32.21243048 -24.20020158 0 0 Z M-73.4921875 29.453125 C-76.78226157 33.61073103 -81.0625 39.99701946 -81.0625 45.4375 C-61.9225 45.4375 -42.7825 45.4375 -23.0625 45.4375 C-24.21777635 37.35056556 -26.751 32.06557241 -33.05859375 26.7578125 C-45.40087977 18.62585797 -62.44426093 19.09902957 -73.4921875 29.453125 Z " fill="#FFFFFF" transform="translate(387.0625,578.5625)"/>
<path d="M0 0 C2.25115385 0.00314002 4.5009625 -0.02030974 6.75195312 -0.0456543 C20.11191782 -0.10456018 33.04053626 1.63327955 45.77539062 5.81567383 C47.02578125 6.21786133 48.27617188 6.62004883 49.56445312 7.03442383 C53.17517852 8.32453051 56.64524347 9.76584012 60.15039062 11.31567383 C59.56155501 16.0709193 58.14850978 20.12066859 56.20898438 24.46411133 C55.92185074 25.12150299 55.6347171 25.77889465 55.33888245 26.45620728 C54.42822054 28.53721147 53.50823544 30.61393658 52.58789062 32.69067383 C51.96552323 34.10836942 51.34377204 35.52633569 50.72265625 36.94458008 C49.20567709 40.40478293 47.68032766 43.86118195 46.15039062 47.31567383 C41.69376574 47.31567383 39.45093763 46.28941291 35.40039062 44.50317383 C20.30392276 38.21082101 1.88289996 35.14765246 -13.96679688 40.36645508 C-17.3758376 42.08512084 -18.64276633 43.6951447 -19.84960938 47.31567383 C-18.90808148 50.00338012 -18.90808148 50.00338012 -16.84960938 52.31567383 C-13.96609408 53.63350045 -13.96609408 53.63350045 -10.41210938 54.31567383 C-9.73470703 54.47173096 -9.05730469 54.62778809 -8.359375 54.78857422 C-2.4516559 56.09735138 3.51337505 57.09271439 9.47509766 58.11987305 C48.43720691 64.83355123 48.43720691 64.83355123 58.94335938 78.51879883 C66.03269979 89.07250947 67.32028728 100.87389229 65.15039062 113.31567383 C63.42297007 119.25112361 60.84710155 124.34821852 57.15039062 129.31567383 C56.34601563 130.52223633 56.34601563 130.52223633 55.52539062 131.75317383 C43.11133325 145.14728836 23.03052292 151.11944021 5.19335938 152.22583008 C4.18917969 152.25547852 3.185 152.28512695 2.15039062 152.31567383 C1.48346191 152.3361377 0.8165332 152.35660156 0.12939453 152.37768555 C-24.16565215 153.01828277 -51.77707434 150.548155 -72.84960938 137.31567383 C-71.42098651 132.81279924 -69.70509636 128.48986706 -67.81054688 124.16723633 C-67.52482819 123.50984467 -67.2391095 122.852453 -66.94473267 122.17514038 C-66.0404119 120.09593589 -65.13257245 118.01828997 -64.22460938 115.94067383 C-63.60718781 114.52280698 -62.98999799 113.1048392 -62.37304688 111.68676758 C-60.86791134 108.22856348 -59.35962027 104.77175174 -57.84960938 101.31567383 C-53.70941316 102.06855595 -50.36282278 103.35243141 -46.53710938 105.12817383 C-33.67933161 110.87637718 -20.03014215 113.48087423 -5.97460938 113.56567383 C-5.12769531 113.58629883 -4.28078125 113.60692383 -3.40820312 113.62817383 C3.22278938 113.66879247 10.12893407 112.98166491 15.27539062 108.44067383 C16.44059743 105.61088588 16.11077267 104.19738274 15.15039062 101.31567383 C6.81665636 95.73642846 -6.13688654 95.46349847 -15.8659668 94.03662109 C-33.59320406 91.40545315 -51.82711074 88.21421257 -63.63867188 73.29614258 C-70.08667174 62.75054281 -71.29838197 49.92645289 -68.66210938 38.02661133 C-64.55621054 24.32712193 -56.48808459 16.26003522 -44.41601562 9.13989258 C-30.58138752 1.74015401 -15.45099062 -0.04483843 0 0 Z " fill="#FFFFFF" transform="translate(937.849609375,283.684326171875)"/>
<path d="M0 0 C-2.05272055 6.47505346 -4.82343197 12.59853371 -7.59521484 18.7878418 C-8.50385016 20.8211156 -9.40242205 22.85865321 -10.30078125 24.89648438 C-10.87699422 26.18777235 -11.45379615 27.47879771 -12.03125 28.76953125 C-12.81338867 30.52680542 -12.81338867 30.52680542 -13.61132812 32.31958008 C-15 35 -15 35 -17 36 C-19.17659311 35.15897627 -21.31762208 34.22519028 -23.4375 33.25 C-39.1061376 26.25049394 -58.42187214 22.47395738 -75.15234375 28.05078125 C-77.26305826 29.13514409 -78.56722264 30.10179814 -80 32 C-79.76522801 35.64541845 -79.76522801 35.64541845 -79 39 C-73.46339352 41.23175283 -68.24027932 42.70229668 -62.36328125 43.68359375 C-61.56198288 43.82523453 -60.76068451 43.96687531 -59.93510437 44.11280823 C-56.55091822 44.71091505 -53.16380702 45.29153121 -49.77661133 45.87231445 C-11.92513528 52.40425508 -11.92513528 52.40425508 -0.39453125 68.19921875 C5.80542595 78.61732865 6.67116309 90.989942 3.875 102.6875 C-0.24922619 115.7823933 -8.71307931 124.47017632 -20.75 130.8125 C-50.47012537 144.67761248 -87.89891033 142.66096274 -118.47412109 132.14941406 C-120.75712934 131.29463181 -123.00609851 130.38986993 -125.25 129.4375 C-126.26042358 129.01658081 -126.26042358 129.01658081 -127.29125977 128.5871582 C-131.6975999 126.5832187 -131.6975999 126.5832187 -132.85522461 124.35058594 C-133.07677639 120.75345187 -131.60030689 117.86770984 -130.17578125 114.64453125 C-129.72177193 113.59116829 -129.72177193 113.59116829 -129.2585907 112.51652527 C-128.61610464 111.03558496 -127.96766478 109.55721539 -127.3137207 108.08129883 C-126.31497549 105.81810955 -125.34511118 103.5439914 -124.37695312 101.26757812 C-123.74910724 99.82998053 -123.11960522 98.39310484 -122.48828125 96.95703125 C-122.19955643 96.27477982 -121.9108316 95.59252838 -121.61335754 94.88960266 C-119.51707938 90.24372548 -119.51707938 90.24372548 -116.90795898 89.01391602 C-114.32595306 88.99508373 -112.97651982 89.82489927 -110.75 91.125 C-93.6631356 100.1591448 -69.88324867 104.90444529 -50.9375 99.6875 C-47.52600532 98.55433217 -47.1136791 98.17051866 -45 95 C-44.5 92.5 -44.5 92.5 -45 90 C-48.50804468 86.3527472 -52.98015538 85.92864616 -57.75 85.0625 C-59.05336304 84.81209961 -59.05336304 84.81209961 -60.38305664 84.55664062 C-66.34704606 83.43038464 -72.33123365 82.45288344 -78.32470703 81.49829102 C-92.06417707 79.2988982 -104.34068123 77.0914398 -116 69 C-117.0725 68.2575 -118.145 67.515 -119.25 66.75 C-126.62444422 59.37555578 -130.18513615 50.55591799 -130.38037109 40.18701172 C-130.35052868 26.64669687 -127.47461105 16.55022581 -118.3984375 6.16796875 C-92.12541644 -19.46848132 -29.82753418 -19.88502279 0 0 Z " fill="#FFFFFF" transform="translate(1577,575)"/>
<path d="M0 0 C0.70320931 -0.00548504 1.40641862 -0.01097007 2.1309373 -0.01662133 C4.50410957 -0.03019991 6.8762471 -0.01511338 9.24940014 -0.00032526 C10.96851685 -0.00419207 12.68763036 -0.00981261 14.40673625 -0.01703486 C19.16140602 -0.03186368 23.91574915 -0.02157715 28.67040895 -0.00742287 C33.83146003 0.00357675 38.99246367 -0.00851348 44.15351105 -0.01773036 C53.20902669 -0.03067213 62.26444465 -0.02864219 71.31996059 -0.01695067 C84.78548181 0.00038719 98.25092576 -0.00505071 111.7164509 -0.01511758 C134.36600468 -0.03133969 157.01551452 -0.0285161 179.66506481 -0.01437002 C202.10210143 -0.00037466 224.53911988 0.0066763 246.976161 0.00392145 C248.38404929 0.00375857 249.79193757 0.00359653 251.19982586 0.00343534 C256.85724464 0.00277706 262.51466341 0.00207331 268.17208217 0.00131 C283.98787353 -0.00080186 299.8036648 -0.00155409 315.61945629 -0.00127321 C316.33972879 -0.00126083 317.06000129 -0.00124845 317.80210023 -0.0012357 C340.76037651 -0.00074616 363.71864714 0.00568189 386.67692089 0.01628393 C387.79421454 0.01679909 387.79421454 0.01679909 388.93407979 0.01732465 C401.03091237 0.02292358 413.1277448 0.02885767 425.22457721 0.03481371 C473.20496243 0.05841581 521.18531585 0.06460904 569.16570568 0.05420107 C572.19762997 0.05354786 575.22955426 0.05289655 578.26147854 0.05224556 C579.01110642 0.05208453 579.76073429 0.05192349 580.53307816 0.05175758 C588.83461663 0.04997817 597.1361551 0.04825602 605.4376936 0.04660314 C606.18211372 0.04645378 606.92653385 0.04630441 607.69351216 0.04615052 C647.15249773 0.03829599 686.61148047 0.04389724 726.07046503 0.05471644 C731.72289036 0.05626573 737.37531569 0.05777908 743.02774103 0.05929126 C745.13595194 0.0598595 747.24416285 0.06044099 749.35237376 0.061023 C764.78251369 0.06522735 780.21265044 0.06741857 795.64279079 0.06433791 C796.33868101 0.0641993 797.03457122 0.06406069 797.75154901 0.06391788 C801.2555088 0.06320745 804.75946858 0.06246125 808.26342836 0.06170052 C833.56502025 0.05621665 858.8665773 0.06032197 884.16816449 0.08168907 C897.56028252 0.09270659 910.95234222 0.09543984 924.34446207 0.08640054 C933.27624308 0.08120338 942.20797391 0.08682043 951.13974437 0.10145388 C956.23784777 0.10950287 961.33583278 0.1127044 966.43393576 0.10288132 C971.06453265 0.09406003 975.69490089 0.09884679 980.32547666 0.11486075 C981.99721145 0.118197 983.66896552 0.11642363 985.34068774 0.10913227 C987.59894464 0.10000439 989.85639952 0.10913911 992.11461449 0.12304783 C993.36842767 0.12347485 994.62224085 0.12390186 995.91404837 0.12434182 C999.30008322 0.52927971 1000.73646256 1.02513393 1003.05730724 3.50024599 C1003.52643813 7.87880094 1003.52674253 9.79609306 1001.05730724 13.50024599 C997.59125246 14.65559758 994.91131539 14.62688646 991.25278771 14.62904716 C990.55236957 14.63082216 989.85195144 14.63259717 989.13030851 14.63442597 C986.76094999 14.6391927 984.39165167 14.63678653 982.02229023 14.63446707 C980.30805663 14.63641886 978.59382349 14.63880727 976.87959105 14.64159504 C972.13390675 14.64801968 967.38823933 14.6481547 962.64255151 14.64731763 C957.49286157 14.64748664 952.34317777 14.65338728 947.19349086 14.65855849 C936.96408705 14.66790259 926.73468756 14.67180957 916.50528001 14.67407745 C904.2592484 14.67703477 892.01322256 14.6857293 879.76719397 14.69449173 C850.16655394 14.71535491 820.56591387 14.72581163 790.96526849 14.73462134 C781.16508317 14.73755442 771.36489807 14.74092418 761.564713 14.74458855 C760.87354041 14.74484684 760.18236781 14.74510514 759.4702506 14.74537125 C756.67413336 14.74641745 753.87801612 14.74746587 751.08189889 14.74851708 C703.25642789 14.76648141 655.43095654 14.78186184 607.60548264 14.78927611 C603.84828305 14.78986008 600.09108346 14.79045735 596.33388387 14.79105372 C595.58856457 14.79117184 594.84324526 14.79128996 594.07534052 14.79141166 C586.52403496 14.79260907 578.97272939 14.79381783 571.42142383 14.7950442 C569.90734894 14.79528943 568.39327404 14.79553328 566.87919915 14.79577576 C518.23758535 14.80356792 469.59599567 14.8259569 420.95439242 14.85845219 C386.00804074 14.88179043 351.06169385 14.90334595 316.11533451 14.91045851 C315.39700616 14.91060553 314.67867781 14.91075255 313.93858193 14.91090402 C298.17130041 14.91408848 282.40401893 14.91613963 266.63673713 14.91713157 C260.29302899 14.91754633 253.94932087 14.91810123 247.60561275 14.91869348 C246.56417278 14.91878449 246.56417278 14.91878449 245.50169361 14.91887733 C223.11705698 14.9208951 200.73244877 14.93514657 178.34782207 14.95563848 C155.1824745 14.97676997 132.0171633 14.98358713 108.85180415 14.9737647 C95.48653876 14.96853137 82.12138625 14.97451327 68.75613701 14.99629937 C59.84095386 15.00973857 50.92584901 15.00879181 42.0106652 14.99589741 C36.9228086 14.98895471 31.83516887 14.98848697 26.74733104 15.0054575 C22.12483232 15.02075114 17.50272676 15.01785873 12.88024033 15.00004722 C11.21257132 14.99688012 9.54487305 15.00051386 7.87723748 15.01153896 C5.62184841 15.02548632 3.3678639 15.01498511 1.11252511 14.99819064 C-0.13886015 14.99859082 -1.3902454 14.99899101 -2.67955142 14.99940332 C-6.55749073 14.40620136 -8.22962382 13.29386125 -10.94269276 10.50024599 C-11.50519276 7.50024599 -11.50519276 7.50024599 -10.94269276 4.50024599 C-7.74406717 0.1929616 -5.21729001 0.00019681 0 0 Z " fill="#FFFFFF" transform="translate(1837.9426927566528,802.499754011631)"/>
<path d="M0 0 C1.81008545 -0.02102783 1.81008545 -0.02102783 3.65673828 -0.04248047 C23.94940168 0.06494642 42.30910658 6.53501409 57.1875 20.5 C62.54660241 26.05929877 66.68046552 32.13264077 69.4375 39.375 C68.28951806 42.81894582 67.95425864 42.93090527 64.88330078 44.47558594 C64.13227081 44.85898132 63.38124084 45.24237671 62.60745239 45.63739014 C61.79082123 46.04064514 60.97419006 46.44390015 60.1328125 46.859375 C59.29789276 47.27922668 58.46297302 47.69907837 57.60275269 48.13165283 C55.83479457 49.01733441 54.06429666 49.89796138 52.29150391 50.77392578 C49.57336144 52.11962272 46.86652794 53.48628198 44.16015625 54.85546875 C42.44334815 55.71222081 40.72592007 56.56773186 39.0078125 57.421875 C38.1952298 57.83322693 37.38264709 58.24457886 36.54544067 58.668396 C35.40943924 59.22457611 35.40943924 59.22457611 34.25048828 59.79199219 C33.5851004 60.12269714 32.91971252 60.4534021 32.23416138 60.79412842 C30.4375 61.375 30.4375 61.375 27.4375 60.375 C26.11328125 58.51953125 26.11328125 58.51953125 24.75 56.1875 C20.69913742 49.85928682 15.55780936 45.80892884 8.4375 43.375 C-0.64688448 41.6440213 -8.96400145 42.15346895 -17.07421875 46.8203125 C-24.53853586 52.12552962 -28.6591039 59.01580621 -30.28125 68 C-31.62327316 79.33264006 -30.16604426 89.94797718 -23.36328125 99.3671875 C-17.94066385 105.41322945 -11.08927482 108.91162711 -3 109.58984375 C5.85395489 109.89727274 12.33415388 108.44385837 19.1875 102.6875 C23.0838211 99.00953665 25.93708791 95.09939671 28.4375 90.375 C33.79518433 91.93266541 38.43222627 94.36166558 43.3125 97 C51.94812679 101.61118326 60.66011123 106.04078596 69.4375 110.375 C65.93610385 124.38058461 55.82471009 134.53941897 43.875 142 C22.15526059 154.15758998 -4.75294431 155.41774781 -28.47143555 148.85375977 C-43.2329568 144.46030182 -54.85721873 137.39563065 -65.5625 126.375 C-66.48482422 125.43140625 -66.48482422 125.43140625 -67.42578125 124.46875 C-80.06247442 110.62389754 -85.2053957 91.66016236 -84.74609375 73.20703125 C-83.42126906 52.77090569 -76.37777072 34.81278915 -61.34375 20.68359375 C-43.33390098 5.73440728 -23.19407775 0.18522334 0 0 Z " fill="#FFFFFF" transform="translate(1367.5625,562.625)"/>
<path d="M0 0 C9.02848742 6.84052529 16.1668166 15.82820209 18.8671875 26.9375 C12.54763155 30.29744491 6.21341247 33.62820718 -0.1328125 36.9375 C-1.06158203 37.42299316 -1.99035156 37.90848633 -2.94726562 38.40869141 C-5.6699933 39.82570848 -8.40003635 41.22747776 -11.1328125 42.625 C-11.98649414 43.07085449 -12.84017578 43.51670898 -13.71972656 43.97607422 C-14.51604492 44.37971191 -15.31236328 44.78334961 -16.1328125 45.19921875 C-17.1846875 45.74002075 -17.1846875 45.74002075 -18.2578125 46.29174805 C-20.1328125 46.9375 -20.1328125 46.9375 -23.1328125 45.9375 C-24.45703125 44.08203125 -24.45703125 44.08203125 -25.8203125 41.75 C-30.43275835 34.62167459 -36.17496522 30.46197929 -44.4296875 28.34765625 C-53.57077189 26.960642 -61.44395117 28.9107122 -69.1328125 33.9375 C-72.0300066 36.25023442 -72.0300066 36.25023442 -74.1328125 38.9375 C-75.1846875 40.2059375 -75.1846875 40.2059375 -76.2578125 41.5 C-82.1068923 52.22331296 -82.33306637 63.47615954 -79.1640625 75.0078125 C-76.16669742 83.52305419 -71.08606877 88.79956244 -63.1328125 92.9375 C-55.42851009 96.07628987 -46.20227863 96.13731089 -38.3984375 93.17578125 C-31.19077246 89.2364195 -25.59524136 83.3345071 -22.1328125 75.9375 C-17.6189591 77.31839403 -13.59458908 79.12275708 -9.4140625 81.30859375 C-8.79309692 81.63158951 -8.17213135 81.95458527 -7.53234863 82.28736877 C-5.56365694 83.31246356 -3.59817323 84.3435358 -1.6328125 85.375 C0.33324455 86.40151467 2.29993967 87.42679846 4.26672363 88.45191956 C6.05188601 89.38322366 7.83555688 90.31738512 9.61914062 91.25170898 C12.6873448 92.84415861 15.77101743 94.40025508 18.8671875 95.9375 C17.15824669 106.90967676 8.37106901 117.00301059 -0.3671875 123.390625 C-10.28571317 130.22646004 -21.18949197 135.01043515 -33.1328125 136.9375 C-33.78894531 137.04835938 -34.44507813 137.15921875 -35.12109375 137.2734375 C-58.92887887 140.59128326 -85.0801425 136.22545338 -104.7890625 122.0234375 C-107.30414333 120.06137143 -109.73214493 118.0375694 -112.1328125 115.9375 C-113.08994141 115.10605469 -113.08994141 115.10605469 -114.06640625 114.2578125 C-127.79956987 101.47281831 -134.11649804 82.74203278 -135.05810547 64.43164062 C-135.70185129 44.48883901 -129.84822674 26.86881406 -116.8203125 11.75 C-87.28829007 -19.61538624 -35.40517159 -23.3091404 0 0 Z " fill="#FFFFFF" transform="translate(562.1328125,577.0625)"/>
<path d="M0 0 C17.16 0 34.32 0 52 0 C52 12.54 52 25.08 52 38 C63.22 38 74.44 38 86 38 C86 51.2 86 64.4 86 78 C74.78 78 63.56 78 52 78 C52.05112713 85.26005315 52.11417951 92.51799201 52.20751953 99.77734375 C52.2356756 102.24472174 52.25691668 104.71218903 52.27099609 107.1796875 C52.29249902 110.73483826 52.33919018 114.28892139 52.390625 117.84375 C52.39185364 118.93989624 52.39308228 120.03604248 52.39434814 121.16540527 C52.52143535 127.87130011 53.39570027 132.29470975 57 138 C61.17153224 141.17831027 65.22502401 141.50273494 70.3203125 141.37109375 C74.8872126 140.73865132 78.84706422 138.91948752 83 137 C86.09811371 144.58183207 88.96644873 152.23513256 91.75 159.9375 C92.16121094 161.05962891 92.57242188 162.18175781 92.99609375 163.33789062 C93.38410156 164.41103516 93.77210938 165.48417969 94.171875 166.58984375 C94.5234668 167.55784912 94.87505859 168.52585449 95.23730469 169.52319336 C96 172 96 172 96 175 C75.42186432 183.98578592 52.78236917 186.5502373 31.1875 178.75 C19.11294674 173.70916709 9.55213681 166.01961817 4.1131134 153.84513855 C0.24275487 143.9524302 -0.42372667 134.12202012 -0.29296875 123.60546875 C-0.28872391 122.29210037 -0.28447906 120.97873199 -0.28010559 119.62556458 C-0.26880515 116.18140626 -0.23947158 112.7376447 -0.20599365 109.29364014 C-0.17496772 105.76026777 -0.16153176 102.22682951 -0.14648438 98.69335938 C-0.11458265 91.7953963 -0.06194165 84.89775821 0 78 C-7.26 78 -14.52 78 -22 78 C-22 64.8 -22 51.6 -22 38 C-14.74 38 -7.48 38 0 38 C0 25.46 0 12.92 0 0 Z " fill="#FFFFFF" transform="translate(608,532)"/>
<path d="M0 0 C17.16 0 34.32 0 52 0 C52 12.54 52 25.08 52 38 C62.89 38 73.78 38 85 38 C85 51.2 85 64.4 85 78 C74.11 78 63.22 78 52 78 C52.07402989 85.43872769 52.15689361 92.87626006 52.26245117 100.31445312 C52.29567514 102.84401225 52.32371489 105.37364505 52.34643555 107.90332031 C52.38002704 111.54263667 52.43234754 115.18127934 52.48828125 118.8203125 C52.49467117 119.94865509 52.5010611 121.07699768 52.50764465 122.23953247 C52.6126356 127.86534845 52.73979762 132.18639238 56 137 C60.06247661 140.68161943 63.95297066 141.34658897 69.26953125 141.28710938 C72.37823313 140.9602287 74.89574708 140.09401825 77.8125 138.98046875 C78.78832031 138.61203857 79.76414062 138.2436084 80.76953125 137.86401367 C81.87361328 137.4363269 81.87361328 137.4363269 83 137 C84.53322788 141.14308332 86.06304956 145.2874041 87.58984375 149.43286133 C88.10878527 150.84042566 88.62862627 152.24765874 89.14941406 153.65454102 C89.90150792 155.68677931 90.65026704 157.72022077 91.3984375 159.75390625 C91.84880371 160.97408447 92.29916992 162.1942627 92.76318359 163.45141602 C93.98156218 166.94709953 95.01949356 170.43215718 96 174 C87.91036955 179.93654419 77.00969436 182.5829294 67 183 C65.865625 183.0515625 64.73125 183.103125 63.5625 183.15625 C45.20260122 183.71671732 26.85316297 180.60616996 12.875 167.75 C1.87385126 155.5101723 -0.48626076 140.36788624 -0.29296875 124.484375 C-0.28735611 123.13389564 -0.28309393 121.78341008 -0.28010559 120.43292236 C-0.26878765 116.92134995 -0.23943768 113.41016472 -0.20599365 109.89874268 C-0.17500676 106.29843377 -0.16153987 102.69806078 -0.14648438 99.09765625 C-0.11455152 92.06493293 -0.06189492 85.03253289 0 78 C-7.26 78 -14.52 78 -22 78 C-22 64.8 -22 51.6 -22 38 C-14.74 38 -7.48 38 0 38 C0 25.46 0 12.92 0 0 Z " fill="#FFFFFF" transform="translate(1031,253)"/>
<path d="M0 0 C17.16 0 34.32 0 52 0 C52 66.33 52 132.66 52 201 C34.84 201 17.68 201 0 201 C0 134.67 0 68.34 0 0 Z " fill="#FFFFFF" transform="translate(179,511)"/>
<path d="M0 0 C17.16 0 34.32 0 52 0 C52 66.33 52 132.66 52 201 C34.84 201 17.68 201 0 201 C0 134.67 0 68.34 0 0 Z " fill="#FFFFFF" transform="translate(1519,232)"/>
<path d="M0 0 C17.82 0 35.64 0 54 0 C54 62.7 54 125.4 54 190 C36.18 190 18.36 190 0 190 C0 127.3 0 64.6 0 0 Z " fill="#FFFFFF" transform="translate(223,243)"/>
<path d="M0 0 C0 15.51 0 31.02 0 47 C-6.27 47 -12.54 47 -19 47 C-26.90700588 48.58140118 -34.60740854 51.45723729 -39.6015625 58.14453125 C-43.62083874 65.04311356 -45.29406044 71.8900467 -45.31884766 79.86303711 C-45.33391609 80.99110779 -45.33391609 80.99110779 -45.34928894 82.14196777 C-45.37994048 84.60375267 -45.39710535 87.06542975 -45.4140625 89.52734375 C-45.4327887 91.24370744 -45.45236318 92.96006207 -45.4727478 94.67640686 C-45.52392171 99.17585895 -45.56362601 103.67534084 -45.60089111 108.17492676 C-45.64808974 113.58329223 -45.70962404 118.99151154 -45.76873779 124.39975739 C-45.85677023 132.59977878 -45.92666308 140.79977472 -46 149 C-63.49 149 -80.98 149 -99 149 C-99 100.49 -99 51.98 -99 2 C-82.5 2 -66 2 -49 2 C-48.505 9.425 -48.505 9.425 -48 17 C-46.72125 15.783125 -45.4425 14.56625 -44.125 13.3125 C-31.28092593 2.00413044 -16.7601371 0 0 0 Z " fill="#FFFFFF" transform="translate(1244,284)"/>
<path d="M0 0 C0 15.51 0 31.02 0 47 C-6.6 47 -13.2 47 -20 47 C-26.53564039 48.39056178 -30.69673199 50.11956 -36 54 C-36.99 54.33 -37.98 54.66 -39 55 C-40.12787062 56.81181771 -40.12787062 56.81181771 -41 59 C-41.34160156 59.72058594 -41.68320312 60.44117188 -42.03515625 61.18359375 C-42.37417969 61.92738281 -42.71320312 62.67117188 -43.0625 63.4375 C-43.40410156 64.17871094 -43.74570312 64.91992188 -44.09765625 65.68359375 C-45.9974602 70.56057965 -46.16227756 75.3636854 -46.20532227 80.54418945 C-46.21522186 81.28619095 -46.22512146 82.02819244 -46.23532104 82.79267883 C-46.26678034 85.23284775 -46.29163154 87.67303609 -46.31640625 90.11328125 C-46.33698924 91.81007885 -46.35798606 93.50687148 -46.37937927 95.20365906 C-46.43446104 99.66041018 -46.48393136 104.1172065 -46.53222656 108.57403564 C-46.59139654 113.92641371 -46.65754777 119.2787095 -46.72252655 124.63101959 C-46.82036115 132.75396264 -46.90933676 140.87695949 -47 149 C-64.16 149 -81.32 149 -99 149 C-99 100.49 -99 51.98 -99 2 C-82.83 2 -66.66 2 -50 2 C-49.505 9.425 -49.505 9.425 -49 17 C-47.72125 15.783125 -46.4425 14.56625 -45.125 13.3125 C-31.94688119 1.71002583 -17.18384843 0 0 0 Z " fill="#FFFFFF" transform="translate(822,563)"/>
<path d="M0 0 C17.49 0 34.98 0 53 0 C53 48.51 53 97.02 53 147 C35.51 147 18.02 147 0 147 C0 98.49 0 49.98 0 0 Z " fill="#FFFFFF" transform="translate(1264,286)"/>
<path d="M0 0 C17.16 0 34.32 0 52 0 C52 48.51 52 97.02 52 147 C34.84 147 17.68 147 0 147 C0 98.49 0 49.98 0 0 Z " fill="#FFFFFF" transform="translate(1208,565)"/>
<path d="M0 0 C1.25908676 0.00222061 2.51817352 0.00444122 3.81541443 0.00672913 C4.50806396 0.0065831 5.2007135 0.00643707 5.91435242 0.00628662 C8.21400537 0.00698577 10.51357828 0.01477823 12.81321716 0.02259827 C14.40362504 0.02446244 15.99403349 0.02588635 17.58444214 0.02688599 C21.77827021 0.03071123 25.97206386 0.04054156 30.1658783 0.05158997 C34.44220006 0.06180395 38.71852736 0.06638358 42.99485779 0.07142639 C51.39135799 0.08216383 59.78783017 0.09924032 68.18431091 0.12025452 C69.18144813 4.43622157 69.02520703 7.7475947 68.18431091 12.12025452 C67.18431091 13.12025452 67.18431091 13.12025452 64.9760437 13.24050903 C64.00119522 13.23828842 63.02634674 13.23606781 62.0219574 13.23377991 C60.90542786 13.23365906 59.78889832 13.23353821 58.63853455 13.2334137 C57.45610168 13.22829773 56.27366882 13.22318176 55.05540466 13.21791077 C53.97521057 13.21690369 52.89501648 13.21589661 51.78208923 13.21485901 C47.7286524 13.20960826 43.67523064 13.19564715 39.62181091 13.18275452 C30.56743591 13.16212952 21.51306091 13.14150452 12.18431091 13.12025452 C12.51431091 31.27025452 12.84431091 49.42025452 13.18431091 68.12025452 C30.34431091 68.12025452 47.50431091 68.12025452 65.18431091 68.12025452 C66.43265236 70.6169374 66.13586216 71.93354603 65.80931091 74.68275452 C65.71907654 75.48841858 65.62884216 76.29408264 65.53587341 77.12416077 C65.18431091 79.12025452 65.18431091 79.12025452 64.18431091 80.12025452 C62.5882011 80.21359157 60.98797663 80.23770824 59.3891449 80.23377991 C58.35382629 80.23365906 57.31850769 80.23353821 56.2518158 80.2334137 C55.15575012 80.22829773 54.05968445 80.22318176 52.93040466 80.21791077 C51.92884338 80.21690369 50.9272821 80.21589661 49.89537048 80.21485901 C46.13750572 80.20960881 42.37965722 80.19564769 38.62181091 80.18275452 C30.22743591 80.16212952 21.83306091 80.14150452 13.18431091 80.12025452 C13.18431091 100.58025452 13.18431091 121.04025452 13.18431091 142.12025452 C31.56906826 141.75163674 31.56906826 141.75163674 49.95359802 141.3719635 C52.24794255 141.32802203 54.54229434 141.28445733 56.83665466 141.24134827 C58.04067932 141.2146405 59.24470398 141.18793274 60.48521423 141.16041565 C61.62204651 141.13999207 62.75887878 141.11956848 63.93016052 141.098526 C65.41908058 141.06854774 65.41908058 141.06854774 66.93807983 141.03796387 C69.18431091 141.12025452 69.18431091 141.12025452 70.18431091 142.12025452 C70.28289694 143.57584822 70.31403234 145.03633371 70.30931091 146.49525452 C70.3131781 147.68248108 70.3131781 147.68248108 70.31712341 148.89369202 C70.18431091 151.12025452 70.18431091 151.12025452 69.18431091 154.12025452 C60.0748042 154.27384592 50.96523053 154.42202761 41.85552311 154.56321812 C37.62595855 154.62894359 33.39644165 154.69656357 29.16697693 154.76844788 C25.08868846 154.83769415 21.01034997 154.90204934 16.93192863 154.96294975 C15.37250888 154.98710766 13.81311585 155.01305654 12.25375557 155.04078865 C10.07708546 155.07919931 7.90040911 155.11135813 5.72361755 155.14198303 C3.86163475 155.17196129 3.86163475 155.17196129 1.96203613 155.20254517 C-0.81568909 155.12025452 -0.81568909 155.12025452 -1.81568909 154.12025452 C-1.93589181 151.29549048 -1.99119617 148.49414092 -2.00514221 145.66810608 C-2.01345251 144.77681598 -2.02176281 143.88552588 -2.03032494 142.96722698 C-2.05708576 139.98179786 -2.07691055 136.99636079 -2.09693909 134.01087952 C-2.11476321 131.91212544 -2.13309288 129.81337561 -2.15190125 127.71463013 C-2.1911476 123.25005283 -2.22761867 118.78546553 -2.26179504 114.32084656 C-2.34988629 102.83592175 -2.45326667 91.35113272 -2.55787659 79.86634827 C-2.56799145 78.73909521 -2.57810631 77.61184216 -2.58852768 76.45042992 C-2.77412464 55.95715414 -3.09371808 35.47061662 -3.59889221 14.9825592 C-3.63235245 13.52359474 -3.63235245 13.52359474 -3.66648865 12.03515625 C-3.70709802 10.27687604 -3.75191763 8.51868516 -3.80204773 6.76065063 C-3.84488039 4.88100106 -3.8365286 3.00027656 -3.81568909 1.12025452 C-2.81568909 0.12025452 -2.81568909 0.12025452 0 0 Z " fill="#FFFFFF" transform="translate(1513.815689086914,-0.1202545166015625)"/>
<path d="M0 0 C1.25908676 0.00222061 2.51817352 0.00444122 3.81541443 0.00672913 C4.50806396 0.0065831 5.2007135 0.00643707 5.91435242 0.00628662 C8.21400537 0.00698577 10.51357828 0.01477823 12.81321716 0.02259827 C14.40362504 0.02446244 15.99403349 0.02588635 17.58444214 0.02688599 C21.77827021 0.03071123 25.97206386 0.04054156 30.1658783 0.05158997 C34.44220006 0.06180395 38.71852736 0.06638358 42.99485779 0.07142639 C51.39135799 0.08216383 59.78783017 0.09924032 68.18431091 0.12025452 C68.21117644 2.09934849 68.23064467 4.07854423 68.24681091 6.05775452 C68.25841248 7.15990295 68.27001404 8.26205139 68.28196716 9.39759827 C68.18431091 12.12025452 68.18431091 12.12025452 67.18431091 13.12025452 C65.46565683 13.21384641 63.74315348 13.23770063 62.0219574 13.23377991 C60.90542786 13.23365906 59.78889832 13.23353821 58.63853455 13.2334137 C57.45610168 13.22829773 56.27366882 13.22318176 55.05540466 13.21791077 C53.97521057 13.21690369 52.89501648 13.21589661 51.78208923 13.21485901 C47.7286524 13.20960826 43.67523064 13.19564715 39.62181091 13.18275452 C30.56743591 13.16212952 21.51306091 13.14150452 12.18431091 13.12025452 C12.18431091 31.27025452 12.18431091 49.42025452 12.18431091 68.12025452 C29.67431091 68.12025452 47.16431091 68.12025452 65.18431091 68.12025452 C65.18431091 71.75025452 65.18431091 75.38025452 65.18431091 79.12025452 C64.18431091 80.12025452 64.18431091 80.12025452 62.0899353 80.24050903 C61.1683815 80.23828842 60.2468277 80.23606781 59.29734802 80.23377991 C58.25634445 80.23370438 57.21534088 80.23362885 56.14279175 80.23355103 C55.01051651 80.22838974 53.87824127 80.22322845 52.71165466 80.21791077 C51.55887527 80.21649582 50.40609589 80.21508087 49.21838379 80.21362305 C45.51950028 80.20800457 41.82067627 80.19544893 38.12181091 80.18275452 C35.62116074 80.1777419 33.12050963 80.17317858 30.61985779 80.16908264 C24.47465503 80.15802914 18.32948722 80.14127304 12.18431091 80.12025452 C12.34696945 80.99018036 12.50962799 81.8601062 12.67721558 82.75639343 C13.14920984 85.88740848 13.3049885 88.78076286 13.2978363 91.94203186 C13.29776077 93.06274078 13.29768524 94.18344971 13.29760742 95.33811951 C13.29244614 96.53208344 13.28728485 97.72604736 13.28196716 98.95619202 C13.28055222 100.19068085 13.27913727 101.42516968 13.27767944 102.69706726 C13.27209363 106.62982126 13.25954366 110.5625178 13.24681091 114.49525452 C13.24123003 117.1658266 13.2372315 119.83639814 13.23313904 122.50697327 C13.22212884 129.04475321 13.20540476 135.58249975 13.18431091 142.12025452 C13.88366257 142.10550583 14.58301422 142.09075714 15.30355835 142.07556152 C21.88126953 141.9377418 28.4590585 141.80476725 35.03697872 141.67729092 C38.41907762 141.61157529 41.80111665 141.54395954 45.18309021 141.47206116 C49.06750869 141.38956325 52.95206218 141.31522212 56.83665466 141.24134827 C58.6663102 141.20079567 58.6663102 141.20079567 60.53292847 141.15942383 C61.65401505 141.13932755 62.77510162 141.11923126 63.93016052 141.098526 C65.41908058 141.06854774 65.41908058 141.06854774 66.93807983 141.03796387 C69.18431091 141.12025452 69.18431091 141.12025452 70.18431091 142.12025452 C70.09428693 144.14434207 69.93790054 146.16569738 69.74681091 148.18275452 C69.59405701 149.83984436 69.59405701 149.83984436 69.43821716 151.53041077 C69.31253357 152.81238342 69.31253357 152.81238342 69.18431091 154.12025452 C60.0748042 154.27384592 50.96523053 154.42202761 41.85552311 154.56321812 C37.62595855 154.62894359 33.39644165 154.69656357 29.16697693 154.76844788 C25.08868846 154.83769415 21.01034997 154.90204934 16.93192863 154.96294975 C15.37250888 154.98710766 13.81311585 155.01305654 12.25375557 155.04078865 C10.07708546 155.07919931 7.90040911 155.11135813 5.72361755 155.14198303 C3.86163475 155.17196129 3.86163475 155.17196129 1.96203613 155.20254517 C-0.81568909 155.12025452 -0.81568909 155.12025452 -1.81568909 154.12025452 C-1.93565301 151.63522027 -1.99114974 149.17676959 -2.00514221 146.69032288 C-2.01761191 145.51695578 -2.01761191 145.51695578 -2.03033352 144.3198843 C-2.05709743 141.69997841 -2.07692604 139.08006373 -2.09693909 136.46009827 C-2.11472245 134.61785916 -2.13300634 132.77562483 -2.15176392 130.93339539 C-2.19093889 127.01223155 -2.22734513 123.09105616 -2.26152039 119.16984558 C-2.35009652 109.04643044 -2.4561009 98.92319051 -2.56178284 88.79994202 C-2.57201918 87.80489466 -2.58225552 86.8098473 -2.59280205 85.78464699 C-2.77757798 67.92632214 -3.07453718 50.07374194 -3.51100159 32.21961975 C-3.70340539 24.29999906 -3.86622498 16.38217062 -3.90553284 8.46009827 C-3.91226517 7.73238724 -3.9189975 7.00467621 -3.92593384 6.25491333 C-3.92831688 4.54296759 -3.87750062 2.83108567 -3.81568909 1.12025452 C-2.81568909 0.12025452 -2.81568909 0.12025452 0 0 Z " fill="#FFFFFF" transform="translate(1324.815689086914,-0.1202545166015625)"/>
<path d="M0 0 C0.68128967 -0.00175232 1.36257935 -0.00350464 2.06451416 -0.00531006 C4.32688917 -0.00972789 6.58918663 -0.00679084 8.8515625 -0.00341797 C10.4171551 -0.00409103 11.9827476 -0.00506107 13.54833984 -0.00631714 C16.83366895 -0.00779402 20.11897092 -0.00563988 23.40429688 -0.00097656 C27.62476766 0.00472073 31.84517486 0.00144167 36.06564331 -0.00454903 C39.29972822 -0.00815491 42.53379795 -0.00701593 45.7678833 -0.00442123 C47.32448331 -0.00375204 48.88108468 -0.00458012 50.43768311 -0.00690079 C52.60953446 -0.00942777 54.78128146 -0.00558612 56.953125 0 C58.19143066 0.00079559 59.42973633 0.00159119 60.70556641 0.00241089 C63.4765625 0.12939453 63.4765625 0.12939453 64.4765625 1.12939453 C64.57514853 2.58498823 64.60628393 4.04547372 64.6015625 5.50439453 C64.60542969 6.69162109 64.60542969 6.69162109 64.609375 7.90283203 C64.4765625 10.12939453 64.4765625 10.12939453 63.4765625 13.12939453 C44.9965625 13.12939453 26.5165625 13.12939453 7.4765625 13.12939453 C7.8065625 17.08939453 8.1365625 21.04939453 8.4765625 25.12939453 C8.55212498 28.66344368 8.59496865 32.17513691 8.57421875 35.70751953 C8.5728038 36.64497009 8.57138885 37.58242065 8.56993103 38.54827881 C8.5644104 41.49201894 8.55187388 44.43567807 8.5390625 47.37939453 C8.53403721 49.3963205 8.52947612 51.41324769 8.52539062 53.43017578 C8.51446718 58.32994575 8.49725934 63.2296565 8.4765625 68.12939453 C9.12580185 68.12717392 9.7750412 68.12495331 10.44395447 68.12266541 C17.17543998 68.10061451 23.90691531 68.08548876 30.63842773 68.07446289 C33.15373145 68.0694209 35.66903222 68.06258751 38.18432617 68.05395508 C41.79086025 68.04188359 45.39735573 68.03616504 49.00390625 68.03173828 C50.70231911 68.02399635 50.70231911 68.02399635 52.43504333 68.01609802 C53.99654869 68.01598473 53.99654869 68.01598473 55.58959961 68.01586914 C56.51115341 68.01364853 57.43270721 68.01142792 58.38218689 68.00914001 C60.4765625 68.12939453 60.4765625 68.12939453 61.4765625 69.12939453 C61.1465625 72.75939453 60.8165625 76.38939453 60.4765625 80.12939453 C43.3165625 80.12939453 26.1565625 80.12939453 8.4765625 80.12939453 C8.6415625 86.27564453 8.8065625 92.42189453 8.9765625 98.75439453 C9.35139405 113.21855175 9.59223774 127.65997019 9.4765625 142.12939453 C10.64002197 142.09910156 11.80348145 142.06880859 13.00219727 142.03759766 C17.3913089 141.92383629 21.78048265 141.81263935 26.16967773 141.70214844 C28.05576282 141.65432632 29.94183129 141.60584335 31.82788086 141.55664062 C43.04715015 141.26445663 54.25310187 141.05134091 65.4765625 141.12939453 C65.57421875 150.40673828 65.57421875 150.40673828 65.4765625 153.12939453 C63.60715532 154.99880171 60.449579 154.31316755 57.953125 154.35058594 C57.27183533 154.36209183 56.59054565 154.37359772 55.88861084 154.38545227 C53.62630796 154.42227166 51.36397664 154.45183454 49.1015625 154.48095703 C47.53596582 154.50405864 45.97037337 154.52744883 44.40478516 154.55111694 C41.1195024 154.59963447 37.83419467 154.64455832 34.54882812 154.68701172 C30.32825858 154.74184941 26.10788139 154.8056696 21.88748169 154.87218666 C18.6534495 154.92215524 15.41936409 154.9673252 12.1852417 155.01102829 C10.62861983 155.03265906 9.07201843 155.05581594 7.51544189 155.08049393 C5.34365973 155.11421624 3.17189202 155.1414849 1 155.16699219 C-0.8574585 155.19244614 -0.8574585 155.19244614 -2.75244141 155.21841431 C-5.5234375 155.12939453 -5.5234375 155.12939453 -6.5234375 154.12939453 C-6.61178133 152.64175096 -6.63033861 151.14990371 -6.62109375 149.65966797 C-6.61783081 148.69309265 -6.61456787 147.72651733 -6.61120605 146.73065186 C-6.60286743 145.66083069 -6.59452881 144.59100952 -6.5859375 143.48876953 C-6.57732913 141.16455131 -6.568873 138.84033253 -6.56054688 136.51611328 C-6.55434326 135.27394043 -6.54813965 134.03176758 -6.54174805 132.75195312 C-6.51050101 126.14341292 -6.49714475 119.5348743 -6.4921875 112.92626953 C-6.49163864 112.24042282 -6.49108978 111.55457611 -6.49052429 110.84794617 C-6.48382491 95.27142895 -6.73475645 79.70304194 -7.0234375 64.12939453 C-7.62816329 30.93052262 -7.62816329 30.93052262 -7.6484375 14.37939453 C-7.65093506 13.67331055 -7.65343262 12.96722656 -7.65600586 12.23974609 C-7.66171004 10.3331791 -7.65928594 8.42659264 -7.65625 6.52001953 C-7.65512207 5.4890918 -7.65399414 4.45816406 -7.65283203 3.39599609 C-7.38449664 -1.30442993 -3.98417599 0.00255977 0 0 Z " fill="#FFFFFF" transform="translate(1423.5234375,-0.12939453125)"/>
<path d="M0 0 C-0.99 2.97 -1.98 5.94 -3 9 C-6.45255686 7.657339 -9.78512479 6.16264917 -13.125 4.5625 C-27.22884666 -1.73485822 -43.69828925 -3.87107637 -58.8125 0.5 C-65.69641259 3.32518956 -72.04936445 7.94869949 -75.0625 14.9375 C-76.74157031 20.76284597 -76.63582857 25.9921203 -74.8125 31.75 C-69.55904045 41.16999643 -59.77000721 45.02403926 -49.79115295 47.97648621 C-46.03597447 49.03801403 -42.27108402 50.05909227 -38.5 51.0625 C-4.42482395 60.20876621 -4.42482395 60.20876621 3.5625 73.75 C6.9268733 81.73839347 7.09890822 91.91966923 4 100 C-0.09145661 109.38974574 -6.78156781 115.38370841 -16.203125 119.34765625 C-36.16345321 126.20594636 -58.61231481 124.84796134 -77.5625 115.625 C-82.67413684 112.92021388 -86.86759276 110.03401659 -91 106 C-90.5139707 101.62573634 -89.1638148 99.96133065 -86 97 C-85.34515625 97.51949219 -84.6903125 98.03898438 -84.015625 98.57421875 C-68.91148119 110.11566197 -51.35887491 115.01427868 -32.42578125 112.53125 C-24.06832543 111.01335532 -15.88608914 108.7496645 -10.3125 101.9375 C-6.50040156 96.04607514 -5.36120951 90.96862351 -6 84 C-7.97945768 77.74908101 -10.71195623 73.91417413 -16.41430664 70.59448242 C-24.22861225 66.54146346 -31.98901198 64.04516798 -40.5 61.875 C-77.13792815 52.30223598 -77.13792815 52.30223598 -85.12890625 39.140625 C-89.14937261 30.36163566 -89.0490041 20.05173092 -86 11 C-80.71427548 -0.10828043 -72.3466608 -5.80696006 -61 -10 C-41.5127108 -15.99829667 -16.26459953 -12.19844965 0 0 Z " fill="#FFFFFF" transform="translate(1049,797)"/>
<path d="M0 0 C9.65418712 7.40209544 16.45138395 18.69475908 18.27734375 30.74609375 C18.27734375 35.36609375 18.27734375 39.98609375 18.27734375 44.74609375 C-9.44265625 44.74609375 -37.16265625 44.74609375 -65.72265625 44.74609375 C-64.19131888 54.17959998 -64.19131888 54.17959998 -60.72265625 62.18359375 C-60.20703125 63.15167969 -59.69140625 64.11976563 -59.16015625 65.1171875 C-58.68578125 65.98472656 -58.21140625 66.85226562 -57.72265625 67.74609375 C-57.25859375 68.84630859 -57.25859375 68.84630859 -56.78515625 69.96875 C-55.42332087 72.24682022 -54.13471811 72.71235295 -51.72265625 73.74609375 C-50.48660038 74.54807432 -49.2575673 75.36096493 -48.03515625 76.18359375 C-37.94325978 82.4840595 -26.14050505 84.09640769 -14.52734375 81.60546875 C-6.98461096 79.294325 0.20485903 75.90553948 5.27734375 69.74609375 C8.12117498 71.02091465 10.41488393 72.19746453 12.27734375 74.74609375 C11.76018003 79.28773148 9.07137194 81.20905505 5.71875 84.00390625 C-6.37863954 92.63660343 -20.31630222 93.97598118 -34.72265625 92.74609375 C-48.47657988 90.43996399 -59.85517855 83.67049713 -68.33984375 72.64453125 C-76.5416087 60.44389583 -78.37132287 44.95008699 -76.03515625 30.68359375 C-73.02391065 17.80215425 -66.96281209 7.21203202 -56.2578125 -0.68359375 C-38.76134168 -11.52116119 -17.24682387 -11.20903788 0 0 Z M-56.53515625 12.6640625 C-62.6445557 20.31608531 -64.63710631 26.97614427 -65.72265625 36.74609375 C-41.30265625 36.74609375 -16.88265625 36.74609375 8.27734375 36.74609375 C7.45801871 28.46099545 7.45801871 28.46099545 4.46484375 21.49609375 C3.96339844 20.5215625 3.46195313 19.54703125 2.9453125 18.54296875 C-2.1256456 10.0399102 -9.50273368 5.05134901 -18.72265625 1.74609375 C-32.69980904 -1.52515478 -46.62338393 2.17552756 -56.53515625 12.6640625 Z " fill="#FFFFFF" transform="translate(1397.72265625,827.25390625)"/>
<path d="M0 0 C9.70920767 8.1105617 16.31993352 19.16120335 17.69848633 31.86206055 C17.83468606 34.73968453 17.86645452 37.592042 17.8359375 40.47265625 C17.82763916 41.48489258 17.81934082 42.49712891 17.81079102 43.54003906 C17.51209382 56.75074619 13.2810313 67.46062429 4.3671875 77.3515625 C-6.72408467 87.94051256 -19.30326034 91.46381005 -34.22558594 91.40063477 C-46.68157326 91.10282194 -58.52881404 86.73422097 -67.72265625 78.171875 C-79.55781091 65.10645478 -82.44136084 50.43528314 -81.78076172 33.45361328 C-80.8914206 21.76132194 -74.71559608 10.39609969 -66.6015625 2.09765625 C-47.64919871 -13.58111743 -19.93770809 -14.57907483 0 0 Z M-60.0078125 10.30859375 C-68.15567314 19.45496672 -71.83462823 30.97823849 -71.6015625 43.09765625 C-70.55997915 51.57912069 -68.52501441 59.06415352 -63.6015625 66.09765625 C-63.17101563 66.7215625 -62.74046875 67.34546875 -62.296875 67.98828125 C-56.6774309 75.29038375 -47.97360437 80.1409211 -38.921875 81.5 C-27.14340401 82.83369455 -17.63051211 80.5576831 -7.6015625 74.09765625 C1.5649719 66.17352817 6.60519118 55.47496091 7.6171875 43.51171875 C8.0636813 30.52619087 4.15033955 19.79540664 -4.4140625 10.03125 C-11.87122899 2.83819149 -21.48584743 -0.52871927 -31.7265625 -0.96875 C-42.2903245 -0.72475006 -52.18154945 3.1099084 -60.0078125 10.30859375 Z " fill="#FFFFFF" transform="translate(1148.6015625,828.90234375)"/>
<path d="M0 0 C9.74724313 -0.43602386 19.0584768 1.58674569 26.70703125 7.87890625 C32.49799702 13.65922686 34.8149148 19.08630712 35.08203125 27.25390625 C34.87827105 32.43993195 34.13562453 36.62917412 31.64453125 41.19140625 C31.27714844 41.86945312 30.90976563 42.5475 30.53125 43.24609375 C26.12774089 50.13063601 18.94200035 53.83413544 11.12890625 55.8359375 C-0.33297734 57.47592399 -10.78095238 55.82359871 -20.30859375 49.06640625 C-26.45748286 43.43383607 -28.96868574 36.6780892 -29.66796875 28.56640625 C-29.51168438 21.03634124 -26.7942006 14.24849009 -21.66796875 8.75390625 C-15.32502585 2.98974213 -8.42972764 0.68500274 0 0 Z " fill="#FFFFFF" transform="translate(1231.35546875,493.80859375)"/>
<path d="M0 0 C4.53449333 3.64296583 7.47696291 8.36838874 9.3046875 13.8515625 C10.08846482 23.08893809 10.07509561 31.1716232 4.3046875 38.8515625 C-2.27259445 46.10308465 -9.36034366 49.36884384 -19.12890625 50.01171875 C-29.81807704 50.36044347 -38.75259553 48.24845295 -46.6953125 40.8515625 C-53.18751009 34.00843531 -54.33625821 27.57118175 -54.1015625 18.359375 C-53.18283886 10.42654972 -49.33663271 4.2755803 -43.12109375 -0.67578125 C-29.71763048 -8.81282739 -13.05393953 -8.25529509 0 0 Z " fill="#FFFFFF" transform="translate(1312.6953125,221.1484375)"/>
<path d="M0 0 C3.96 0 7.92 0 12 0 C21.16585796 20.34519416 30.32168539 40.69482596 39.4375 61.0625 C39.98034134 62.27465179 39.98034134 62.27465179 40.53414917 63.5112915 C41.56373983 65.8106411 42.59254982 68.11033827 43.62109375 70.41015625 C43.92035767 71.0783287 44.21962158 71.74650116 44.5279541 72.43492126 C46.39220725 76.60687512 48.20929949 80.79614483 50 85 C56.28602145 72.92714115 61.81995242 60.55785335 67.30419922 48.10424805 C70.83020095 40.10394848 74.40083389 32.12355789 77.97097778 24.1428833 C79.11110275 21.59357412 80.24982556 19.04364195 81.38842773 16.49365234 C82.094814 14.9137033 82.80127222 13.33378643 83.5078125 11.75390625 C83.83126144 11.02902512 84.15471039 10.30414398 84.48796082 9.55729675 C85.93101427 6.33421182 87.42016403 3.15967193 89 0 C92.63 0 96.26 0 100 0 C98.46224321 4.95710752 96.46994324 9.58731158 94.31640625 14.296875 C93.76558128 15.511119 93.76558128 15.511119 93.20362854 16.74989319 C91.99263716 19.41783957 90.7775296 22.0838906 89.5625 24.75 C88.70980374 26.62705195 87.85743271 28.50425168 87.00537109 30.3815918 C85.2299697 34.29258045 83.45316123 38.20292511 81.67529297 42.11279297 C77.88151389 50.45828179 74.10230993 58.81035348 70.3243103 67.16299438 C69.12901008 69.80364096 67.93156131 72.44330408 66.73364258 75.08276367 C63.16286508 82.95687494 59.61726926 90.83916836 56.1640625 98.765625 C55.29520978 100.74820292 54.42568195 102.73048369 53.55609131 104.71273804 C52.7845683 106.48317508 52.02695848 108.25965568 51.27001953 110.03637695 C47.00326347 119.76839117 40.83607153 130.50553567 30.6875 135.03125 C20.94896505 138.31800554 11.54816485 137.72611311 2 134 C-0.57196154 132.4996891 -2.68965984 130.89961302 -5 129 C-4.46930939 125.17902761 -3.50298434 122.93828597 -1 120 C1.32550347 120.8720638 3.56200175 121.73497565 5.69140625 123.0234375 C11.65864003 126.53650624 17.18516747 126.77003757 24 126 C30.93900635 123.815498 34.63300628 118.63976597 37.96875 112.453125 C38.63322316 111.13954412 39.28942786 109.82174953 39.9375 108.5 C40.2564624 107.87125977 40.5754248 107.24251953 40.90405273 106.59472656 C43.09300051 101.89249711 43.03794905 99.00379985 42 94 C41.02397126 91.48373003 40.01543939 89.10715613 38.859375 86.6796875 C38.54106216 85.9917511 38.22274933 85.3038147 37.89479065 84.59503174 C36.85464244 82.35114684 35.80220035 80.11325496 34.75 77.875 C34.01867595 76.30112889 33.28846492 74.72674017 32.55932617 73.15185547 C31.44753445 70.75051769 30.33522595 68.3494422 29.21965027 65.94985962 C25.85179152 58.7036171 22.56863754 51.42210587 19.3125 44.125 C18.27345194 41.79947272 17.23438943 39.47395189 16.1953125 37.1484375 C15.68000977 35.9944043 15.16470703 34.84037109 14.63378906 33.65136719 C12.86477819 29.69395044 11.08480707 25.74149162 9.3046875 21.7890625 C8.39394948 19.76500937 7.48336945 17.74088525 6.57284546 15.71673584 C5.98608023 14.41327605 5.39870543 13.11009049 4.81069946 11.80718994 C4.00103099 10.01283979 3.1938096 8.21738603 2.38671875 6.421875 C1.92483154 5.39674805 1.46294434 4.37162109 0.98706055 3.31542969 C0 1 0 1 0 0 Z " fill="#FFFFFF" transform="translate(1487,820)"/>
<path d="M0 0 C0.01030746 1.1351152 0.02061493 2.27023041 0.03123474 3.43974304 C0.16256774 17.85570112 0.29838275 32.27161497 0.4375 46.6875 C0.44852123 47.82985611 0.45954247 48.97221222 0.47089767 50.14918518 C0.80309894 84.4371418 1.20603635 118.71915139 2 153 C-0.64551056 153.19386492 -3.29117783 153.38038267 -5.9375 153.5625 C-6.69224609 153.61857422 -7.44699219 153.67464844 -8.22460938 153.73242188 C-10.14745958 153.86176157 -12.07389548 153.93516912 -14 154 C-15 153 -15 153 -15.11352539 150.21273804 C-15.10828857 148.95965851 -15.10305176 147.70657898 -15.09765625 146.41552734 C-15.09621864 145.72237112 -15.09478104 145.0292149 -15.09329987 144.31505394 C-15.08951218 142.79442775 -15.08339899 141.27380607 -15.07530212 139.75319672 C-15.0623325 137.30430975 -15.05534556 134.85546981 -15.04992676 132.40655518 C-15.04163162 128.89433723 -15.0309254 125.38213915 -15.01831055 121.86993408 C-14.98635689 112.69977053 -14.97387003 103.5295896 -14.96875 94.359375 C-14.96820114 93.44386997 -14.96765228 92.52836494 -14.96708679 91.58511734 C-14.95998353 69.75519664 -15.34887261 47.94145252 -15.84643555 26.11740112 C-16.03478843 17.41098143 -16.04926729 8.70799359 -16 0 C-4.140625 -1.16015625 -4.140625 -1.16015625 0 0 Z " fill="#FFFFFF" transform="translate(1288,1)"/>
<path d="M0 0 C0.6909375 0.25523437 1.381875 0.51046875 2.09375 0.7734375 C8.3141243 3.46399623 13.38305383 8.11305698 18 13 C18.495 14.485 18.495 14.485 19 16 C13.67826087 20.95889328 13.67826087 20.95889328 10.9375 21.125 C8.18110151 19.52451056 6.25264995 17.25264995 4 15 C-4.75208986 8.63978563 -13.75949702 6.43814752 -24.578125 7.17578125 C-34.62638613 8.78026166 -44.87874747 13.70193841 -51 22 C-57.9815346 33.40566214 -59.84447409 45.40035076 -57.3125 58.578125 C-55.40585009 65.41028719 -52.88920532 70.83851448 -48 76 C-47.49855469 76.54140625 -46.99710938 77.0828125 -46.48046875 77.640625 C-39.33184219 84.52835278 -29.71443448 87.64554329 -19.9453125 88.06640625 C-8.99677731 87.81955599 -0.14424508 84.40385916 8 77 C8.99 75.515 8.99 75.515 10 74 C14.24822374 74.47202486 16.19989709 76.96655518 19 80 C10.97798394 90.16293996 1.82777382 95.93218482 -11 98 C-28.27147167 98.92684884 -42.80382725 96.43294938 -56.25 84.5625 C-63.96943381 76.26168624 -69.22758508 64.26009299 -70 53 C-70.06832031 52.13375 -70.13664062 51.2675 -70.20703125 50.375 C-70.75651469 36.37334793 -66.83926606 23.39109197 -57.75 12.75 C-43.05796124 -2.71785598 -19.97711819 -7.65789531 0 0 Z " fill="#FFFFFF" transform="translate(1248,822)"/>
<path d="M0 0 C3.3 0 6.6 0 10 0 C10 7.26 10 14.52 10 22 C20.56 22 31.12 22 42 22 C42 24.97 42 27.94 42 31 C31.44 31 20.88 31 10 31 C10.12014294 42.15540172 10.12014294 42.15540172 10.2578125 53.31054688 C10.3179157 57.86608635 10.37604886 62.42158654 10.421875 66.97729492 C10.45898748 70.65381927 10.50541432 74.33012286 10.55806351 78.00645638 C10.57647059 79.40289465 10.59162797 80.79937999 10.60334396 82.19589043 C10.31808425 95.48015091 10.31808425 95.48015091 15.25 107.4375 C19.94434211 111.81177333 24.55019037 112.3975758 30.7578125 112.26171875 C34.28223216 111.85033179 36.83938543 110.6112937 40 109 C41.2065625 108.4121875 41.2065625 108.4121875 42.4375 107.8125 C43.2109375 107.4103125 43.2109375 107.4103125 44 107 C48 112.625 48 112.625 48 116 C46.41925436 116.81752303 44.83528777 117.62881997 43.25 118.4375 C42.36828125 118.88996094 41.4865625 119.34242188 40.578125 119.80859375 C33.22697783 123.20571479 23.31195252 123.43346267 15.625 120.9375 C8.22540774 117.50764608 3.77758832 112.69440277 0.85174561 105.16169739 C-0.87883893 98.73773164 -0.48325824 92.09393061 -0.390625 85.4921875 C-0.38314979 83.91464969 -0.37746292 82.33710248 -0.37347412 80.759552 C-0.3583182 76.63958372 -0.31912558 72.5201939 -0.2746582 68.40045166 C-0.23348649 64.183714 -0.21541671 59.96688141 -0.1953125 55.75 C-0.15261926 47.49970704 -0.08235422 39.24999248 0 31 C-5.94 31 -11.88 31 -18 31 C-18 28.03 -18 25.06 -18 22 C-12.06 22 -6.12 22 0 22 C0 14.74 0 7.48 0 0 Z " fill="#FFFFFF" transform="translate(1441,798)"/>
<path d="M0 0 C3.63 0 7.26 0 11 0 C11 32.67 11 65.34 11 99 C7.37 99 3.74 99 0 99 C0 66.33 0 33.66 0 0 Z " fill="#FFFFFF" transform="translate(1288,820)"/>
<path d="M0 0 C2.4375 2.125 2.4375 2.125 4 5 C4.07481382 9.26438773 3.64839572 11.23718151 0.875 14.5 C-2.97148295 16.50686067 -4.88546541 16.27176524 -9 15 C-11.5 12.875 -11.5 12.875 -13 10 C-12.93822484 6.41704089 -12.76840164 4.04782042 -10.625 1.125 C-6.95352102 -1.41679314 -4.14591064 -1.1845459 0 0 Z " fill="#FFFFFF" transform="translate(1298,781)"/>
</svg>
