<svg width="65" height="177" viewBox="0 0 65 177" fill="none" xmlns="http://www.w3.org/2000/svg">
<path d="M64.4645 177.007L0.311768 177.007L0.311768 170.804L64.4645 170.804V177.007ZM64.4189 167.752L0.311768 167.752L0.311768 164.602L64.4189 164.602V167.752ZM64.4189 158.399L0.311768 158.399L0.311768 155.347L64.4189 155.347V158.399ZM64.4189 142.942H0.311768L0.311768 139.89H64.4189V142.942ZM64.4189 130.537H0.311768L0.311768 124.433L64.4189 124.433V130.537ZM64.4189 115.08L0.311768 115.08L0.311768 112.028L64.4189 112.028V115.08ZM64.4189 108.877L0.311768 108.877L0.311768 105.825L64.4189 105.825V108.877ZM64.4189 102.674L0.311768 102.674L0.311768 99.6223L64.4189 99.6223V102.674ZM64.4189 90.3673L0.311768 90.3673L0.311768 84.1647L64.4189 84.1647V90.3673ZM64.4189 74.9101L0.311768 74.9101L0.311768 68.7075L64.4189 68.7075V74.9101ZM64.4189 62.5052L0.311768 62.5052L0.311768 56.3023L64.4189 56.3023V62.5052ZM64.4189 50.0996L0.311768 50.0996L0.311768 43.8967L64.4189 43.8967V50.0996ZM64.4189 40.845L0.311768 40.845L0.311768 34.6424L64.4189 34.6424L64.4189 40.845ZM64.4189 25.2892L0.311768 25.2892L0.311768 16.0346L64.4189 16.0346V25.2892ZM64.4189 12.9825L0.311768 12.9825L0.311768 9.83197L64.4189 9.83197V12.9825ZM64.4645 6.77994L0.311768 6.77994L0.311768 0.577332L64.4645 0.577332V6.77994Z" fill="black"/>
</svg>
